<?xml version="1.0" encoding="utf-8"?>
<svg version="1.1" id="Ebene_1" xmlns="http://www.w3.org/2000/svg" xmlns:xlink="http://www.w3.org/1999/xlink" x="0px" y="0px"
	 viewBox="0 0 170.6 170.6" style="enable-background:new 0 0 170.6 170.6;" xml:space="preserve">
<style type="text/css">
	.st0{fill:#C76E3F;}
	.st1{fill:#C03839;}
	.st2{fill:#833B4E;}
</style>
<title>1047_7435_Logo arbeit.swiss</title>
<polygon class="st0" points="0,85.3 0,44.9 44.9,44.9 44.9,0 85.3,0 85.3,41.4 72.1,41.4 72.1,72.2 41.3,72.2 41.3,85.3 "/>
<polygon class="st1" points="0,85.3 0,125.7 44.9,125.7 44.9,170.6 85.3,170.6 85.3,129.3 72.1,129.3 72.1,98.4 41.3,98.4
	41.3,85.3 "/>
<polygon class="st2" points="85.3,170.6 125.7,170.6 125.7,125.6 170.6,125.6 170.6,85.2 129.3,85.2 129.3,98.4 98.4,98.4
	98.4,129.3 85.3,129.3 "/>
</svg>
