<svg id="Ebene_1" data-name="Ebene 1" xmlns="http://www.w3.org/2000/svg" viewBox="0 0 708.66 283.46"><defs><style>.cls-1{fill:#555866;}.cls-2{fill:#cc7029;}.cls-3{fill:#c31622;}.cls-4{fill:#8a1642;}</style></defs><title>1047_0118901_eps_rand</title><path class="cls-1" d="M166.73,96.19c0,3.22,1.21,4.36,4.7,4.36h5.49l1.39,9a45.78,45.78,0,0,1-12.11,1.74c-7.75,0-12.28-4.53-12.28-12.37v-23h-7.57V67.71l7.57-.44v-12h12.81v12h11.93V75.9H166.73Z"/><path class="cls-1" d="M217.51,78H214c-3.74,0-7.31,1-13.15,3v29.26H188V67.27h10l1.13,6.36c5.75-4.88,11.84-7.57,17.42-7.57h2.26Z"/><path class="cls-1" d="M266.37,81.82v28.39H256.18l-1.31-6.53A20.64,20.64,0,0,1,239,111.26c-8,0-14-4.36-14-12.37V94.54c0-6.88,5-10.89,13.15-10.89h15.33V81.73c-.09-4.35-1.57-5.57-7.06-5.57-4.09,0-11.23.26-18.11.69l-1.22-8.7a151.79,151.79,0,0,1,22.38-2.09C260.53,66.06,266.37,69.71,266.37,81.82ZM237.71,97.15c0,3,1.57,4.44,5,4.44,3,0,7.06-1.39,10.72-4.18v-6H241.89c-3.13.09-4.18,1.66-4.18,4.09Z"/><path class="cls-1" d="M307.65,107.17a4.31,4.31,0,0,1-4.18,3H292.32a4.32,4.32,0,0,1-4.18-3L274,67.27h13.68l7.75,26.92c.7,2.52,1.31,5.14,1.83,7.66h1.13c.7-2.52,1.31-5.14,2-7.66l7.76-26.92h13.58Z"/><path class="cls-1" d="M369.15,81.82v28.39H359l-1.3-6.53a20.66,20.66,0,0,1-15.85,7.58c-8,0-14-4.36-14-12.37V94.54c0-6.88,5-10.89,13.16-10.89h15.32V81.73c-.08-4.35-1.56-5.57-7.05-5.57-4.09,0-11.24.26-18.12.69l-1.22-8.7a152,152,0,0,1,22.39-2.09C363.31,66.06,369.15,69.71,369.15,81.82ZM340.49,97.15c0,3,1.57,4.44,5.05,4.44,3,0,7.06-1.39,10.71-4.18v-6H344.67c-3.14.09-4.18,1.66-4.18,4.09Z"/><path class="cls-1" d="M391.1,48.29c2.52,0,3.74,1.3,3.74,3.74v4.71c0,2.52-1.22,3.74-3.74,3.74h-5.75c-2.53,0-3.75-1.22-3.75-3.74V52c0-2.44,1.22-3.74,3.75-3.74Zm-9.24,61.92V67.27h12.81v42.94Z"/><path class="cls-1" d="M420.62,96.19c0,3,1.66,4.36,4.88,4.36H429l1.48,9c-2.17,1.13-7.49,1.74-10.27,1.74-7.58,0-12.37-4.27-12.37-11.85V49.25h12.8Z"/><path class="cls-1" d="M445.53,97.06c3.4,0,4.53,1,4.53,4.44v4.18c0,3.4-1.13,4.53-4.53,4.53h-3.48c-3.4,0-4.53-1.13-4.53-4.53V101.5c0-3.39,1.13-4.44,4.53-4.44Z"/><path class="cls-1" d="M495.79,68.06l-.7,6.1c-5.31-.18-10.8-.44-16.11-.44-7.58,0-9.93.09-9.93,4.7,0,4.1,2,4.44,6,5.58l12,3C494,88.79,497,91.49,497,98.89c0,10.45-5.75,12.28-18.47,12.28A114.59,114.59,0,0,1,461.65,110l.6-6.27c3.92.35,9.06.44,14.55.44,9.32,0,12-.87,12-5.23,0-3.92-2.44-4.35-6.45-5.4l-11.84-3c-7.06-1.83-9.67-5.14-9.67-12.11,0-9.67,5-11.93,16.81-11.84A137,137,0,0,1,495.79,68.06Z"/><path class="cls-1" d="M561.2,107.86a3.13,3.13,0,0,1-3.22,2.35H550.4a3.24,3.24,0,0,1-3.22-2.7L541,79.56c-.43-2.27-.78-4.53-1.3-6.8h-1.05c-.44,2.27-1,4.53-1.39,6.8l-6.1,28a3.27,3.27,0,0,1-3.31,2.7h-7.49a3,3,0,0,1-3.14-2.35l-12-40.15h8.71l8.19,30.66a58,58,0,0,1,1.31,6.53h1.13c.52-2.18,1.05-4.35,1.48-6.53l6.27-28.05a3.1,3.1,0,0,1,3.14-2.61H543a3.16,3.16,0,0,1,3.13,2.7l6.19,28c.43,2.18.95,4.27,1.48,6.53h1.13a58,58,0,0,1,1.3-6.53l8.19-30.66h8.71Z"/><path class="cls-1" d="M590.38,49.59A2.21,2.21,0,0,1,592.82,52v4.88a2.2,2.2,0,0,1-2.44,2.53h-4a2.2,2.2,0,0,1-2.44-2.53V52a2.21,2.21,0,0,1,2.44-2.44Zm-6.18,60.62V67.71h8.36v42.5Z"/><path class="cls-1" d="M640.72,68.06l-.69,6.1c-5.32-.18-10.8-.44-16.12-.44-7.57,0-9.93.09-9.93,4.7,0,4.1,2,4.44,6,5.58l12,3c6.88,1.83,9.93,4.53,9.93,11.93,0,10.45-5.75,12.28-18.46,12.28a114.62,114.62,0,0,1-16.9-1.22l.61-6.27c3.92.35,9.06.44,14.54.44,9.32,0,12-.87,12-5.23,0-3.92-2.43-4.35-6.44-5.4l-11.85-3c-7.05-1.83-9.66-5.14-9.66-12.11,0-9.67,5-11.93,16.81-11.84A136.69,136.69,0,0,1,640.72,68.06Z"/><path class="cls-1" d="M687.23,68.06l-.69,6.1c-5.32-.18-10.8-.44-16.12-.44-7.57,0-9.92.09-9.92,4.7,0,4.1,2,4.44,6,5.58l12,3c6.88,1.83,9.93,4.53,9.93,11.93,0,10.45-5.75,12.28-18.46,12.28a114.7,114.7,0,0,1-16.9-1.22l.61-6.27c3.92.35,9.06.44,14.55.44,9.32,0,12-.87,12-5.23,0-3.92-2.44-4.35-6.45-5.4l-11.84-3c-7.06-1.83-9.67-5.14-9.67-12.11,0-9.67,5-11.93,16.81-11.84A136.69,136.69,0,0,1,687.23,68.06Z"/><polygon class="cls-2" points="21.03 150.76 21.03 110.35 65.94 110.35 65.94 65.44 106.35 65.44 106.35 106.81 93.14 106.81 93.14 137.64 62.33 137.64 62.33 150.76 21.03 150.76"/><polygon class="cls-3" points="21.03 150.76 21.03 191.17 65.94 191.17 65.94 236.08 106.35 236.08 106.35 194.71 93.14 194.71 93.14 163.88 62.33 163.88 62.33 150.76 21.03 150.76"/><polygon class="cls-4" points="106.35 236 146.76 236 146.76 191.09 191.67 191.09 191.67 150.68 150.29 150.68 150.29 163.88 119.47 163.88 119.47 194.7 106.35 194.7 106.35 236"/><path class="cls-1" d="M428.85,182.29c0,6.14-2.81,9.42-8,9.36a23,23,0,0,1-5.74-.76l.65-4.21h2.86c2.93,0,4.33-1.41,4.33-4.1V150.76h5.85Z"/><path class="cls-1" d="M465.36,176.91c0,10.88-3.69,15-13.64,15s-13.63-4.09-13.63-15,3.69-15.1,13.63-15.1S465.36,166,465.36,176.91Zm-21.36,0c0,7.9,1.82,10.24,7.72,10.24s7.73-2.34,7.73-10.24-1.82-10.3-7.73-10.3S444,168.89,444,176.91Z"/><path class="cls-1" d="M500.34,176.73c0,9.6-2.81,15.1-12.87,15.1a44.87,44.87,0,0,1-13.34-2.05V150.17h5.67v10.24a28,28,0,0,1-.58,6.49c3.22-3.39,7-5.09,10.76-5.09C497,161.81,500.34,166,500.34,176.73Zm-5.85,0c-.06-7.43-1.17-10-6.5-10-2.86,0-5.14,1.58-8.25,4l.06,15.5a29.24,29.24,0,0,0,7.55.88C492.5,187,494.43,184.46,494.49,176.73Z"/><path class="cls-1" d="M508.88,178.49v-4.33h17.78v4.33Z"/><path class="cls-1" d="M559.71,191.12l-3.45-12.57c-.93-2.93-2.51-4-5.09-4l-8.3-.06v16.67h-5.8V150.76a119,119,0,0,1,14.1-.53c9.48,0,13.34,2.63,13.34,11.7,0,6.38-2,9.6-7.43,10.3v.29a7.67,7.67,0,0,1,5.09,5.85l3.8,12.75Zm-8.65-21.64c5.67-.06,7.54-1.64,7.54-7.2s-1.87-7-7.54-7c-3.16,0-6,0-8.19.06v14.16Z"/><path class="cls-1" d="M600.2,176.91c0,10.88-3.69,15-13.63,15s-13.64-4.09-13.64-15,3.69-15.1,13.64-15.1S600.2,166,600.2,176.91Zm-21.36,0c0,7.9,1.82,10.24,7.73,10.24s7.72-2.34,7.72-10.24-1.82-10.3-7.72-10.3S578.84,168.89,578.84,176.91Z"/><path class="cls-1" d="M635,176.91c0,10.88-3.68,15-13.63,15s-13.63-4.09-13.63-15,3.69-15.1,13.63-15.1S635,166,635,176.91Zm-21.35,0c0,7.9,1.81,10.24,7.72,10.24s7.72-2.34,7.72-10.24-1.81-10.3-7.72-10.3S613.65,168.89,613.65,176.91Z"/><path class="cls-1" d="M686.48,169.71v21.41h-5.55V171.35c-.06-3.33-1.12-4.74-4.16-4.74-2.75,0-4.62,1.17-8.83,4.21v20.3H662.5V171.35c0-3.51-1.35-4.74-4.16-4.74-2.63,0-4.56,1.11-8.83,4.16v20.35h-5.62V162.58h4.68l.3,4.32c3.8-3.27,7.49-5.09,11.46-5.09s6.32,1.7,7.26,5c3.8-3.34,7.43-5,11.23-5C683.79,161.81,686.48,164.56,686.48,169.71Z"/></svg>