<?xml version="1.0" encoding="utf-8"?>
<!-- Generator: Adobe Illustrator 21.1.0, SVG Export Plug-In . SVG Version: 6.00 Build 0)  -->
<svg version="1.1" id="Ebene_1" xmlns="http://www.w3.org/2000/svg" xmlns:xlink="http://www.w3.org/1999/xlink" x="0px" y="0px"
	 viewBox="0 0 708.7 283.5" style="enable-background:new 0 0 708.7 283.5;" xml:space="preserve">
<style type="text/css">
	.st0{fill:#555866;}
	.st1{fill:#CC7029;}
	.st2{fill:#C31622;}
	.st3{fill:#8A1642;}
</style>
<title>1047_0118901_eps_rand</title>
<path class="st0" d="M178.1,96.2c0,3.2,1.1,4.4,4.3,4.4h5.1l1.3,9c-3.6,1.1-7.4,1.7-11.2,1.7c-7.1,0-11.3-4.5-11.3-12.4v-23h-7v-8.2
	l7-0.4v-12h11.8v12h11v8.6h-11V96.2z"/>
<path class="st0" d="M228.1,78h-3.4c-3.6,0-7.1,1-12.7,3v29.3h-12.4v-43h9.7l1.1,6.4c5.6-4.9,11.4-7.6,16.8-7.6h2.2L228.1,78z"/>
<path class="st0" d="M270.1,81.8v28.4h-9.4l-1.2-6.5c-3.6,4.8-9,7.5-14.6,7.6c-7.4,0-12.9-4.4-12.9-12.4v-4.3
	c0-6.9,4.6-10.9,12.1-10.9h14.1v-1.9c-0.1-4.3-1.4-5.6-6.5-5.6c-3.8,0-10.4,0.3-16.7,0.7l-1.1-8.7c6.8-1.2,13.7-1.9,20.6-2.1
	C264.7,66.1,270.1,69.7,270.1,81.8z M243.6,97.1c0,3,1.4,4.4,4.6,4.4c2.8,0,6.5-1.4,9.9-4.2v-6h-10.6c-2.9,0.1-3.9,1.7-3.9,4.1V97.1
	z"/>
<path class="st0" d="M308.1,107.2c-0.5,1.8-2.1,3-3.9,3H294c-1.8,0-3.3-1.2-3.9-3l-13-39.9h12.6l7.1,26.9c0.6,2.5,1.2,5.1,1.7,7.7h1
	c0.6-2.5,1.2-5.1,1.8-7.7l7.2-26.9h12.5L308.1,107.2z"/>
<path class="st0" d="M364.9,81.8v28.4h-9.4l-1.2-6.5c-3.6,4.8-8.9,7.5-14.6,7.6c-7.4,0-12.9-4.4-12.9-12.4v-4.3
	c0-6.9,4.6-10.9,12.1-10.9H353v-1.9c-0.1-4.3-1.4-5.6-6.5-5.6c-3.8,0-10.4,0.3-16.7,0.7l-1.1-8.7c6.8-1.2,13.7-1.9,20.7-2.1
	C359.5,66.1,364.9,69.7,364.9,81.8z M338.4,97.1c0,3,1.4,4.4,4.7,4.4c2.8,0,6.5-1.4,9.9-4.2v-6h-10.7c-2.9,0.1-3.9,1.7-3.9,4.1
	L338.4,97.1z"/>
<path class="st0" d="M385.1,48.3c2.3,0,3.4,1.3,3.4,3.7v4.7c0,2.5-1.1,3.7-3.4,3.7h-5.3c-2.3,0-3.5-1.2-3.5-3.7V52
	c0-2.4,1.1-3.7,3.5-3.7L385.1,48.3z M376.6,110.2V67.3h11.8v42.9L376.6,110.2z"/>
<path class="st0" d="M412.3,96.2c0,3,1.5,4.4,4.5,4.4h3.2l1.4,9c-2,1.1-6.9,1.7-9.5,1.7c-7,0-11.4-4.3-11.4-11.8V49.2h11.8
	L412.3,96.2z"/>
<path class="st0" d="M435.3,97.1c3.1,0,4.2,1,4.2,4.4v4.2c0,3.4-1,4.5-4.2,4.5h-3.2c-3.1,0-4.2-1.1-4.2-4.5v-4.2
	c0-3.4,1-4.4,4.2-4.4H435.3z"/>
<path class="st0" d="M481.7,68.1l-0.6,6.1c-4.9-0.2-10-0.4-14.9-0.4c-7,0-9.2,0.1-9.2,4.7c0,4.1,1.8,4.4,5.5,5.6l11.1,3
	c6.4,1.8,9.2,4.5,9.2,11.9c0,10.4-5.3,12.3-17,12.3c-5.2,0-10.4-0.4-15.6-1.2l0.6-6.3c3.6,0.3,8.4,0.4,13.4,0.4
	c8.6,0,11.1-0.9,11.1-5.2c0-3.9-2.3-4.3-5.9-5.4l-10.9-3c-6.5-1.8-8.9-5.1-8.9-12.1c0-9.7,4.6-11.9,15.5-11.8
	C470.5,66.7,476.1,67.2,481.7,68.1z"/>
<path class="st0" d="M542,107.9c-0.3,1.5-1.6,2.4-3,2.3h-7c-1.5,0-2.7-1.1-3-2.7l-5.7-28c-0.4-2.3-0.7-4.5-1.2-6.8h-1
	c-0.4,2.3-0.9,4.5-1.3,6.8l-5.6,28c-0.3,1.6-1.6,2.7-3.1,2.7h-6.9c-1.4,0.1-2.6-0.9-2.9-2.3l-11.1-40.2h8l7.6,30.7
	c0.5,2.1,0.9,4.3,1.2,6.5h1c0.5-2.2,1-4.3,1.4-6.5l5.8-28.1c0.2-1.5,1.5-2.6,2.9-2.6h7c1.4,0,2.7,1.1,2.9,2.7l5.7,28
	c0.4,2.2,0.9,4.3,1.4,6.5h1c0.3-2.2,0.7-4.4,1.2-6.5l7.6-30.7h8L542,107.9z"/>
<path class="st0" d="M568.9,49.6c1.1-0.1,2.1,0.7,2.2,2c0,0.2,0,0.3,0,0.5v4.9c0.2,1.2-0.6,2.3-1.7,2.5c-0.2,0-0.4,0-0.6,0h-3.7
	c-1.1,0.1-2.1-0.7-2.3-1.9c0-0.2,0-0.4,0-0.6V52c-0.1-1.2,0.7-2.3,1.8-2.4c0.1,0,0.3,0,0.4,0L568.9,49.6z M563.2,110.2V67.7h7.7
	v42.5H563.2z"/>
<path class="st0" d="M615.4,68.1l-0.6,6.1c-4.9-0.2-10-0.4-14.9-0.4c-7,0-9.2,0.1-9.2,4.7c0,4.1,1.8,4.4,5.5,5.6l11.1,3
	c6.3,1.8,9.2,4.5,9.2,11.9c0,10.4-5.3,12.3-17,12.3c-5.2,0-10.4-0.4-15.6-1.2l0.6-6.3c3.6,0.3,8.4,0.4,13.4,0.4
	c8.6,0,11.1-0.9,11.1-5.2c0-3.9-2.2-4.3-5.9-5.4l-10.9-3c-6.5-1.8-8.9-5.1-8.9-12.1c0-9.7,4.6-11.9,15.5-11.8
	C604.2,66.7,609.8,67.2,615.4,68.1z"/>
<path class="st0" d="M658.3,68.1l-0.6,6.1c-4.9-0.2-10-0.4-14.9-0.4c-7,0-9.2,0.1-9.2,4.7c0,4.1,1.8,4.4,5.5,5.6l11.1,3
	c6.3,1.8,9.2,4.5,9.2,11.9c0,10.4-5.3,12.3-17,12.3c-5.2,0-10.4-0.4-15.6-1.2l0.6-6.3c3.6,0.3,8.4,0.4,13.4,0.4
	c8.6,0,11.1-0.9,11.1-5.2c0-3.9-2.3-4.3-5.9-5.4l-10.9-3c-6.5-1.8-8.9-5.1-8.9-12.1c0-9.7,4.6-11.9,15.5-11.8
	C647.1,66.7,652.7,67.2,658.3,68.1z"/>
<polygon class="st1" points="34,150.8 34,110.3 78.9,110.3 78.9,65.4 119.3,65.4 119.3,106.8 106.1,106.8 106.1,137.6 75.3,137.6 
	75.3,150.8 "/>
<polygon class="st2" points="34,150.8 34,191.2 78.9,191.2 78.9,236.1 119.3,236.1 119.3,194.7 106.1,194.7 106.1,163.9 75.3,163.9 
	75.3,150.8 "/>
<polygon class="st3" points="119.3,236 159.8,236 159.8,191.1 204.7,191.1 204.7,150.7 163.3,150.7 163.3,163.9 132.5,163.9 
	132.5,194.7 119.3,194.7 "/>
<path class="st0" d="M419.9,182.3c0,6.1-2.6,9.4-7.4,9.4c-1.8,0-3.6-0.3-5.3-0.8l0.6-4.2h2.6c2.7,0,4-1.4,4-4.1v-31.8h5.4
	L419.9,182.3z"/>
<path class="st0" d="M453.6,176.9c0,10.9-3.4,15-12.6,15c-9.2,0-12.6-4.1-12.6-15s3.4-15.1,12.6-15.1S453.6,166,453.6,176.9z
	 M433.9,176.9c0,7.9,1.7,10.2,7.1,10.2c5.4,0,7.1-2.3,7.1-10.2s-1.7-10.3-7.1-10.3C435.6,166.6,433.9,168.9,433.9,176.9z"/>
<path class="st0" d="M485.9,176.7c0,9.6-2.6,15.1-11.9,15.1c-4.2,0-8.3-0.7-12.3-2.1v-39.6h5.2v10.2c0.1,2.2-0.1,4.4-0.5,6.5
	c3-3.4,6.5-5.1,9.9-5.1C482.8,161.8,485.9,166,485.9,176.7z M480.5,176.7c-0.1-7.4-1.1-10-6-10c-2.6,0-4.7,1.6-7.6,4l0.1,15.5
	c2.3,0.6,4.6,0.9,7,0.9C478.6,187,480.4,184.5,480.5,176.7z"/>
<path class="st0" d="M493.8,178.5v-4.3h16.4v4.3H493.8z"/>
<path class="st0" d="M540.6,191.1l-3.2-12.6c-0.9-2.9-2.3-4-4.7-4l-7.7-0.1v16.7h-5.3v-40.4c4.3-0.5,8.7-0.6,13-0.5
	c8.7,0,12.3,2.6,12.3,11.7c0,6.4-1.8,9.6-6.9,10.3v0.3c2.4,0.9,4.2,3.1,4.7,5.9l3.5,12.8H540.6z M532.7,169.5c5.2-0.1,7-1.6,7-7.2
	s-1.7-7-7-7c-2.9,0-5.5,0-7.6,0.1v14.2L532.7,169.5z"/>
<path class="st0" d="M578,176.9c0,10.9-3.4,15-12.6,15c-9.2,0-12.6-4.1-12.6-15s3.4-15.1,12.6-15.1C574.6,161.8,578,166,578,176.9z
	 M558.3,176.9c0,7.9,1.7,10.2,7.1,10.2c5.5,0,7.1-2.3,7.1-10.2s-1.7-10.3-7.1-10.3C560,166.6,558.3,168.9,558.3,176.9z"/>
<path class="st0" d="M610.1,176.9c0,10.9-3.4,15-12.6,15c-9.2,0-12.6-4.1-12.6-15s3.4-15.1,12.6-15.1
	C606.7,161.8,610.1,166,610.1,176.9z M590.4,176.9c0,7.9,1.7,10.2,7.1,10.2c5.5,0,7.1-2.3,7.1-10.2s-1.7-10.3-7.1-10.3
	C592.1,166.6,590.4,168.9,590.4,176.9z"/>
<path class="st0" d="M657.6,169.7v21.4h-5.1v-19.8c-0.1-3.3-1-4.7-3.8-4.7c-2.5,0-4.3,1.2-8.1,4.2v20.3h-5v-19.8
	c0-3.5-1.2-4.7-3.8-4.7c-2.4,0-4.2,1.1-8.1,4.2v20.4h-5.2v-28.5h4.3l0.3,4.3c3.5-3.3,6.9-5.1,10.6-5.1c3.7,0,5.8,1.7,6.7,5
	c3.5-3.3,6.9-5,10.4-5C655.1,161.8,657.6,164.6,657.6,169.7z"/>
</svg>
