<svg id="Ebene_1" data-name="Ebene 1" xmlns="http://www.w3.org/2000/svg" viewBox="0 0 708.66 283.46"><defs><style>.cls-1{fill:#555866;}.cls-2{fill:#cc7029;}.cls-3{fill:#c31622;}.cls-4{fill:#8a1642;}</style></defs><title>1047_0118901_eps_rand</title><path class="cls-1" d="M200,81.56v28.81H189.7l-1.32-6.63a21,21,0,0,1-16.08,7.69c-8.13,0-14.23-4.42-14.23-12.55V94.46c0-7,5-11,13.34-11H187V81.48c-.08-4.42-1.59-5.66-7.15-5.66-4.16,0-11.4.27-18.38.71l-1.24-8.84a156.42,156.42,0,0,1,22.71-2.12C194.12,65.57,200,69.28,200,81.56ZM171,97.11c0,3.1,1.59,4.51,5.13,4.51,3,0,7.15-1.41,10.86-4.24v-6.1H175.21C172,91.37,171,93,171,95.44Z"/><path class="cls-1" d="M242.54,77.68H239c-3.8,0-7.42,1-13.34,3v29.69H212.59V66.81h10.16l1.15,6.45c5.83-5,12-7.69,17.67-7.69h2.29Z"/><path class="cls-1" d="M295.64,88.19c0,13.34-3.89,23.24-21.29,23.24-6.19,0-16.79-1.06-22.18-3.36V48.52h13.08l.08,13.87a36.11,36.11,0,0,1-1.23,10.34c4.24-4.42,9.8-7.16,15.55-7.16C290.87,65.57,295.64,72,295.64,88.19Zm-13.43.09c0-9.45-1.33-12.28-7.78-12.28-3.44,0-6,1.59-9.27,3.71l.09,21.12a35.42,35.42,0,0,0,8.83.88C280,101.53,282.21,98.62,282.21,88.28Z"/><path class="cls-1" d="M345.47,100l1.24,8.13c-5.13,2.47-12.81,3.27-19,3.27-16.52,0-22.7-6.72-22.7-22.8,0-17.22,6.36-23.06,22.17-23.06,14.84,0,20.59,5.22,20.67,15.2,0,8-3.79,12.19-13.25,12.19H318.88c.88,6.63,3.71,8,10.33,8C333.19,101,339.55,100.65,345.47,100ZM318.61,85.1H331c3.53,0,4.06-2,4.06-4.51,0-4.06-1.76-5.47-7.42-5.47C321.08,75,319,76.88,318.61,85.1Z"/><path class="cls-1" d="M368.27,47.55c2.56,0,3.8,1.33,3.8,3.8v4.77c0,2.56-1.24,3.8-3.8,3.8h-5.83c-2.57,0-3.8-1.24-3.8-3.8V51.35c0-2.47,1.23-3.8,3.8-3.8Zm-9.37,62.82V66.81h13v43.56Z"/><path class="cls-1" d="M402.11,96.14c0,3.27,1.23,4.42,4.77,4.42h5.56l1.42,9.1a46.31,46.31,0,0,1-12.28,1.77c-7.87,0-12.46-4.6-12.46-12.55V75.56h-7.69V67.25l7.69-.44V54.62h13V66.81h12.1v8.75h-12.1Z"/><path class="cls-1" d="M430.91,97c3.45,0,4.59,1.06,4.59,4.5v4.24c0,3.45-1.14,4.6-4.59,4.6h-3.53c-3.45,0-4.6-1.15-4.6-4.6v-4.24c0-3.44,1.15-4.5,4.6-4.5Z"/><path class="cls-1" d="M481.89,67.61l-.71,6.18c-5.39-.18-10.95-.44-16.34-.44-7.69,0-10.07.09-10.07,4.77,0,4.15,2,4.51,6.09,5.65l12.19,3c7,1.85,10.07,4.59,10.07,12.1,0,10.6-5.83,12.46-18.72,12.46a115.84,115.84,0,0,1-17.14-1.24l.61-6.36c4,.35,9.19.44,14.76.44,9.45,0,12.19-.88,12.19-5.3,0-4-2.47-4.42-6.54-5.48l-12-3c-7.16-1.86-9.81-5.21-9.81-12.28,0-9.81,5-12.1,17.05-12A137.25,137.25,0,0,1,481.89,67.61Z"/><path class="cls-1" d="M548.24,108a3.18,3.18,0,0,1-3.27,2.39h-7.68a3.3,3.3,0,0,1-3.27-2.74l-6.28-28.36c-.44-2.3-.79-4.6-1.32-6.89h-1.06c-.44,2.29-1,4.59-1.42,6.89l-6.18,28.36a3.33,3.33,0,0,1-3.36,2.74h-7.6a3.08,3.08,0,0,1-3.18-2.39L491.43,67.25h8.84l8.3,31.1A59.84,59.84,0,0,1,509.9,105h1.15c.53-2.21,1.06-4.42,1.5-6.63l6.36-28.45a3.14,3.14,0,0,1,3.18-2.65h7.69A3.22,3.22,0,0,1,533,70l6.27,28.36c.44,2.21,1,4.33,1.5,6.63h1.15a59.78,59.78,0,0,1,1.32-6.63l8.31-31.1h8.83Z"/><path class="cls-1" d="M577.84,48.88a2.24,2.24,0,0,1,2.48,2.47V56.3c0,1.68-.8,2.56-2.48,2.56h-4.06c-1.68,0-2.48-.88-2.48-2.56V51.35a2.24,2.24,0,0,1,2.48-2.47Zm-6.27,61.49V67.25h8.48v43.12Z"/><path class="cls-1" d="M628.91,67.61l-.71,6.18c-5.39-.18-11-.44-16.34-.44-7.69,0-10.07.09-10.07,4.77,0,4.15,2,4.51,6.09,5.65l12.2,3c7,1.85,10.07,4.59,10.07,12.1,0,10.6-5.83,12.46-18.73,12.46a115.84,115.84,0,0,1-17.14-1.24l.62-6.36c4,.35,9.18.44,14.75.44,9.45,0,12.19-.88,12.19-5.3,0-4-2.47-4.42-6.54-5.48l-12-3c-7.16-1.86-9.81-5.21-9.81-12.28,0-9.81,5-12.1,17-12A137.25,137.25,0,0,1,628.91,67.61Z"/><path class="cls-1" d="M676.09,67.61l-.71,6.18c-5.39-.18-11-.44-16.34-.44-7.69,0-10.07.09-10.07,4.77,0,4.15,2,4.51,6.09,5.65l12.2,3c7,1.85,10.07,4.59,10.07,12.1,0,10.6-5.83,12.46-18.73,12.46a115.84,115.84,0,0,1-17.14-1.24l.62-6.36c4,.35,9.18.44,14.75.44,9.45,0,12.19-.88,12.19-5.3,0-4-2.47-4.42-6.54-5.48l-12-3c-7.16-1.86-9.81-5.21-9.81-12.28,0-9.81,5-12.1,17.05-12A137.25,137.25,0,0,1,676.09,67.61Z"/><polygon class="cls-2" points="32.03 150.76 32.03 110.35 76.94 110.35 76.94 65.44 117.35 65.44 117.35 106.81 104.14 106.81 104.14 137.64 73.33 137.64 73.33 150.76 32.03 150.76"/><polygon class="cls-3" points="32.03 150.76 32.03 191.17 76.94 191.17 76.94 236.08 117.35 236.08 117.35 194.71 104.14 194.71 104.14 163.88 73.33 163.88 73.33 150.76 32.03 150.76"/><polygon class="cls-4" points="117.35 236 157.76 236 157.76 191.09 202.67 191.09 202.67 150.68 161.29 150.68 161.29 163.88 130.47 163.88 130.47 194.7 117.35 194.7 117.35 236"/></svg>
