<svg id="Ebene_1" data-name="Ebene 1" xmlns="http://www.w3.org/2000/svg" viewBox="0 0 708.66 283.46"><defs><style>.cls-1{fill:#555866;}.cls-2{fill:#cc7029;}.cls-3{fill:#c31622;}.cls-4{fill:#8a1642;}</style></defs><title>1047_0118901_eps_rand</title><path class="cls-1" d="M239.74,106.76a4.48,4.48,0,0,1-4.51,3.45H225a4.62,4.62,0,0,1-4.69-4l-4.42-24.67c-.35-2.48-.53-4.87-1-7.35h-1.06l-1.06,7.35-4.34,24.67a4.64,4.64,0,0,1-4.77,4H193.57a4.48,4.48,0,0,1-4.51-3.45L178.36,66.6h13.18l5.92,28.3a63.27,63.27,0,0,1,1.06,7.17h1.15c.36-2.39.8-4.78,1.15-7.17l4.43-24.41a4.35,4.35,0,0,1,4.51-3.89H219a4.45,4.45,0,0,1,4.6,4l4.33,24.32c.35,2.39.89,4.78,1.24,7.17h1.06c.35-2.39.53-4.69,1.06-7.17l6-28.3h13.18Z"/><path class="cls-1" d="M302.46,88.45c0,16.71-6.1,22.9-22.38,22.9s-22.47-6.19-22.47-22.9,6.11-23.09,22.47-23.09S302.46,71.64,302.46,88.45Zm-31.14,0c0,10.43,1.86,13.09,8.76,13.09,6.72,0,8.67-2.66,8.67-13.09,0-10.62-1.95-13.27-8.67-13.27C273.18,75.18,271.32,77.83,271.32,88.45Z"/><path class="cls-1" d="M343.59,77.48h-3.54c-3.8,0-7.43,1-13.35,3v29.73H313.61V66.6h10.17l1.15,6.45c5.84-5,12-7.69,17.69-7.69h2.3Z"/><path class="cls-1" d="M365.88,90a44.31,44.31,0,0,1,.62,6.54v13.72H353.41V48.29H366.5V73.85a46,46,0,0,1-.62,8H370L380.74,66.6h14.69L384.11,81.72A15.37,15.37,0,0,1,380,85.88v.18a17,17,0,0,1,4.07,4.69l12.82,19.46H382.25L370,90Z"/><path class="cls-1" d="M412.15,96.85c3.45,0,4.6,1.06,4.6,4.51v4.25c0,3.45-1.15,4.6-4.6,4.6h-3.54c-3.45,0-4.6-1.15-4.6-4.6v-4.25c0-3.45,1.15-4.51,4.6-4.51Z"/><path class="cls-1" d="M463.19,67.39l-.71,6.19c-5.4-.17-11-.44-16.37-.44-7.69,0-10.08.09-10.08,4.78,0,4.16,2,4.51,6.1,5.66l12.21,3c7,1.86,10.08,4.6,10.08,12.12,0,10.61-5.83,12.47-18.75,12.47a116.14,116.14,0,0,1-17.16-1.24l.62-6.37c4,.35,9.2.44,14.77.44,9.47,0,12.21-.88,12.21-5.3,0-4-2.48-4.43-6.55-5.49l-12-3c-7.16-1.85-9.82-5.21-9.82-12.29,0-9.82,5.05-12.12,17.08-12A139.38,139.38,0,0,1,463.19,67.39Z"/><path class="cls-1" d="M529.62,107.82a3.2,3.2,0,0,1-3.28,2.39h-7.69a3.33,3.33,0,0,1-3.28-2.75l-6.28-28.39c-.44-2.3-.79-4.6-1.32-6.9h-1.06c-.45,2.3-1,4.6-1.42,6.9l-6.19,28.39a3.34,3.34,0,0,1-3.36,2.75h-7.61a3.08,3.08,0,0,1-3.18-2.39L472.74,67h8.84l8.32,31.14a59.84,59.84,0,0,1,1.33,6.63h1.15c.53-2.21,1.06-4.42,1.5-6.63l6.37-28.49A3.14,3.14,0,0,1,503.43,67h7.7a3.21,3.21,0,0,1,3.18,2.74l6.28,28.4c.45,2.21,1,4.33,1.51,6.63h1.15a57.57,57.57,0,0,1,1.32-6.63L532.89,67h8.84Z"/><path class="cls-1" d="M559.25,48.64a2.24,2.24,0,0,1,2.48,2.48v5c0,1.68-.8,2.57-2.48,2.57h-4.07c-1.68,0-2.48-.89-2.48-2.57v-5a2.24,2.24,0,0,1,2.48-2.48ZM553,110.21V67h8.49v43.17Z"/><path class="cls-1" d="M610.38,67.39l-.71,6.19c-5.4-.17-11-.44-16.36-.44-7.7,0-10.09.09-10.09,4.78,0,4.16,2,4.51,6.1,5.66l12.21,3c7,1.86,10.09,4.6,10.09,12.12,0,10.61-5.84,12.47-18.76,12.47a116.14,116.14,0,0,1-17.16-1.24l.62-6.37c4,.35,9.2.44,14.77.44,9.47,0,12.21-.88,12.21-5.3,0-4-2.48-4.43-6.54-5.49l-12-3c-7.17-1.85-9.82-5.21-9.82-12.29,0-9.82,5-12.12,17.07-12A139.38,139.38,0,0,1,610.38,67.39Z"/><path class="cls-1" d="M657.61,67.39l-.7,6.19c-5.4-.17-11-.44-16.37-.44-7.69,0-10.08.09-10.08,4.78,0,4.16,2,4.51,6.1,5.66l12.21,3c7,1.86,10.08,4.6,10.08,12.12,0,10.61-5.84,12.47-18.75,12.47a116.14,116.14,0,0,1-17.16-1.24l.62-6.37c4,.35,9.2.44,14.77.44,9.46,0,12.21-.88,12.21-5.3,0-4-2.48-4.43-6.55-5.49l-12-3c-7.16-1.85-9.82-5.21-9.82-12.29,0-9.82,5-12.12,17.07-12A139.24,139.24,0,0,1,657.61,67.39Z"/><polygon class="cls-2" points="51.03 150.76 51.03 110.35 95.94 110.35 95.94 65.44 136.35 65.44 136.35 106.81 123.14 106.81 123.14 137.64 92.33 137.64 92.33 150.76 51.03 150.76"/><polygon class="cls-3" points="51.03 150.76 51.03 191.17 95.94 191.17 95.94 236.08 136.35 236.08 136.35 194.71 123.14 194.71 123.14 163.88 92.33 163.88 92.33 150.76 51.03 150.76"/><polygon class="cls-4" points="136.35 236 176.76 236 176.76 191.09 221.67 191.09 221.67 150.68 180.29 150.68 180.29 163.88 149.47 163.88 149.47 194.7 136.35 194.7 136.35 236"/><path class="cls-1" d="M399.42,182.29c0,6.14-2.81,9.42-8,9.36a22.83,22.83,0,0,1-5.73-.76l.64-4.21h2.87c2.93,0,4.33-1.41,4.33-4.1V150.76h5.85Z"/><path class="cls-1" d="M435.92,176.91c0,10.88-3.68,15-13.63,15s-13.63-4.09-13.63-15,3.69-15.1,13.63-15.1S435.92,166,435.92,176.91Zm-21.35,0c0,7.9,1.81,10.24,7.72,10.24s7.73-2.34,7.73-10.24-1.82-10.3-7.73-10.3S414.57,168.89,414.57,176.91Z"/><path class="cls-1" d="M470.91,176.73c0,9.6-2.81,15.1-12.87,15.1a44.87,44.87,0,0,1-13.34-2.05V150.17h5.67v10.24a28.6,28.6,0,0,1-.58,6.49c3.21-3.39,7-5.09,10.76-5.09C467.57,161.81,470.91,166,470.91,176.73Zm-5.85,0c-.06-7.43-1.17-10-6.5-10-2.86,0-5.15,1.58-8.25,4l.06,15.5a29.24,29.24,0,0,0,7.55.88C463.07,187,465,184.46,465.06,176.73Z"/><path class="cls-1" d="M479.45,178.49v-4.33h17.78v4.33Z"/><path class="cls-1" d="M530.28,191.12l-3.45-12.57c-.93-2.93-2.51-4-5.09-4l-8.31-.06v16.67h-5.79V150.76a119,119,0,0,1,14.1-.53c9.48,0,13.34,2.63,13.34,11.7,0,6.38-2.05,9.6-7.43,10.3v.29a7.67,7.67,0,0,1,5.09,5.85l3.8,12.75Zm-8.66-21.64c5.68-.06,7.55-1.64,7.55-7.2s-1.87-7-7.55-7c-3.15,0-6,0-8.19.06v14.16Z"/><path class="cls-1" d="M570.76,176.91c0,10.88-3.68,15-13.63,15s-13.63-4.09-13.63-15,3.69-15.1,13.63-15.1S570.76,166,570.76,176.91Zm-21.35,0c0,7.9,1.82,10.24,7.72,10.24s7.73-2.34,7.73-10.24-1.82-10.3-7.73-10.3S549.41,168.89,549.41,176.91Z"/><path class="cls-1" d="M605.57,176.91c0,10.88-3.68,15-13.63,15s-13.63-4.09-13.63-15,3.68-15.1,13.63-15.1S605.57,166,605.57,176.91Zm-21.35,0c0,7.9,1.81,10.24,7.72,10.24s7.72-2.34,7.72-10.24-1.81-10.3-7.72-10.3S584.22,168.89,584.22,176.91Z"/><path class="cls-1" d="M657.05,169.71v21.41h-5.56V171.35c0-3.33-1.11-4.74-4.15-4.74-2.75,0-4.62,1.17-8.83,4.21v20.3h-5.44V171.35c0-3.51-1.35-4.74-4.16-4.74-2.63,0-4.56,1.11-8.83,4.16v20.35h-5.62V162.58h4.68l.3,4.32c3.8-3.27,7.48-5.09,11.46-5.09s6.32,1.7,7.26,5c3.8-3.34,7.43-5,11.23-5C654.36,161.81,657.05,164.56,657.05,169.71Z"/></svg>