<?xml version="1.0" encoding="utf-8"?>
<svg version="1.1" id="Ebene_1" xmlns="http://www.w3.org/2000/svg" xmlns:xlink="http://www.w3.org/1999/xlink" x="0px" y="0px"
	 viewBox="0 0 645.3 188.5" style="enable-background:new 0 0 645.3 188.5;" xml:space="preserve">
<style type="text/css">
	.st0{fill:#555866;}
	.st1{fill:#CC7029;}
	.st2{fill:#C31622;}
	.st3{fill:#8A1642;}
</style>
<title>Logo of the arbeit.swiss in German</title>
<path class="st0" d="M168,34v28.8h-10.3l-1.3-6.6c-4,4.8-9.8,7.6-16.1,7.7c-8.1,0-14.2-4.4-14.2-12.6v-4.4c0-7,5-11,13.3-11H155v-2
	c-0.1-4.4-1.6-5.7-7.1-5.7c-4.2,0-11.4,0.3-18.4,0.7l-1.2-8.8c7.5-1.3,15.1-2,22.7-2.1C162.1,18,168,21.7,168,34z M139,49.6
	c0,3.1,1.6,4.5,5.1,4.5c3,0,7.1-1.4,10.9-4.2v-6.1h-11.8c-3.2,0.1-4.2,1.7-4.2,4.2V49.6z"/>
<path class="st0" d="M210.5,30.1H207c-3.8,0-7.4,1-13.3,3v29.7h-13.1V19.3h10.2l1.1,6.4c5.8-5,12-7.7,17.7-7.7h2.3L210.5,30.1z"/>
<path class="st0" d="M263.6,40.6c0,13.3-3.9,23.2-21.3,23.2c-6.2,0-16.8-1.1-22.2-3.4V1h13.1l0.1,13.9c0.1,3.5-0.3,7-1.2,10.3
	c4.2-4.4,9.8-7.2,15.5-7.2C258.8,18,263.6,24.5,263.6,40.6z M250.2,40.7c0-9.4-1.3-12.3-7.8-12.3c-3.4,0-6,1.6-9.3,3.7l0.1,21.1
	c2.9,0.7,5.9,1,8.8,0.9C248,54,250.2,51.1,250.2,40.7L250.2,40.7z"/>
<path class="st0" d="M313.4,52.5l1.2,8.1c-5.1,2.5-12.8,3.3-19,3.3c-16.5,0-22.7-6.7-22.7-22.8c0-17.2,6.4-23.1,22.2-23.1
	c14.8,0,20.6,5.2,20.7,15.2c0,8-3.8,12.2-13.2,12.2h-15.7c0.9,6.6,3.7,8,10.3,8C301.2,53.5,307.5,53.1,313.4,52.5z M286.6,37.5H299
	c3.5,0,4.1-2,4.1-4.5c0-4.1-1.8-5.5-7.4-5.5C289,27.5,287,29.3,286.6,37.5z"/>
<path class="st0" d="M336.2,0c2.6,0,3.8,1.3,3.8,3.8v4.8c0,2.6-1.2,3.8-3.8,3.8h-5.8c-2.6,0-3.8-1.2-3.8-3.8V3.8
	c0-2.5,1.2-3.8,3.8-3.8H336.2z M326.9,62.8V19.3h13v43.6H326.9z"/>
<path class="st0" d="M370.1,48.6c0,3.3,1.2,4.4,4.8,4.4h5.6l1.4,9.1c-4,1.1-8.1,1.7-12.3,1.8c-7.9,0-12.5-4.6-12.5-12.6V28h-7.7
	v-8.3l7.7-0.4V7.1h13v12.2h12.1V28h-12.1L370.1,48.6z"/>
<path class="st0" d="M398.9,49.5c3.5,0,4.6,1.1,4.6,4.5v4.2c0,3.4-1.1,4.6-4.6,4.6h-3.5c-3.5,0-4.6-1.2-4.6-4.6V54
	c0-3.4,1.1-4.5,4.6-4.5H398.9z"/>
<path class="st0" d="M449.9,20.1l-0.7,6.2c-5.4-0.2-11-0.4-16.3-0.4c-7.7,0-10.1,0.1-10.1,4.8c0,4.2,2,4.5,6.1,5.7l12.2,3
	c7,1.8,10.1,4.6,10.1,12.1c0,10.6-5.8,12.5-18.7,12.5c-5.7,0-11.5-0.4-17.1-1.2l0.6-6.4c4,0.3,9.2,0.4,14.8,0.4
	c9.5,0,12.2-0.9,12.2-5.3c0-4-2.5-4.4-6.5-5.5l-12-3c-7.2-1.9-9.8-5.2-9.8-12.3c0-9.8,5-12.1,17-12
	C437.6,18.6,443.8,19.1,449.9,20.1z"/>
<path class="st0" d="M516.2,60.5c-0.4,1.5-1.7,2.5-3.3,2.4h-7.7c-1.6,0-3-1.2-3.3-2.7l-6.3-28.4c-0.4-2.3-0.8-4.6-1.3-6.9h-1.1
	c-0.4,2.3-1,4.6-1.4,6.9l-6.2,28.4c-0.3,1.6-1.7,2.8-3.4,2.7h-7.6c-1.5,0.1-2.8-0.9-3.2-2.4l-12.2-40.8h8.8l8.3,31.1
	c0.6,2.2,1,4.4,1.3,6.7h1.1c0.5-2.2,1.1-4.4,1.5-6.6l6.4-28.5c0.2-1.6,1.6-2.7,3.2-2.7h7.7c1.6,0,3,1.1,3.2,2.7l6.3,28.4
	c0.4,2.2,1,4.3,1.5,6.6h1.2c0.3-2.2,0.8-4.4,1.3-6.6l8.3-31.1h8.8L516.2,60.5z"/>
<path class="st0" d="M545.8,1.3c1.2-0.1,2.3,0.7,2.5,2c0,0.2,0,0.3,0,0.5v4.9c0,1.7-0.8,2.6-2.5,2.6h-4.1c-1.7,0-2.5-0.9-2.5-2.6v-5
	c-0.1-1.2,0.8-2.3,2-2.5c0.2,0,0.3,0,0.5,0L545.8,1.3z M539.5,62.8V19.7h8.5v43.1L539.5,62.8z"/>
<path class="st0" d="M596.9,20.1l-0.7,6.2c-5.4-0.2-11-0.4-16.3-0.4c-7.7,0-10.1,0.1-10.1,4.8c0,4.2,2,4.5,6.1,5.7l12.2,3
	c7,1.8,10.1,4.6,10.1,12.1c0,10.6-5.8,12.5-18.7,12.5c-5.7,0-11.5-0.4-17.1-1.2l0.6-6.4c4,0.3,9.2,0.4,14.8,0.4
	c9.4,0,12.2-0.9,12.2-5.3c0-4-2.5-4.4-6.5-5.5l-12-3c-7.2-1.9-9.8-5.2-9.8-12.3c0-9.8,5-12.1,17-12
	C584.6,18.6,590.8,19.1,596.9,20.1z"/>
<path class="st0" d="M644.1,20.1l-0.7,6.2c-5.4-0.2-11-0.4-16.3-0.4c-7.7,0-10.1,0.1-10.1,4.8c0,4.2,2,4.5,6.1,5.7l12.2,3
	c7,1.8,10.1,4.6,10.1,12.1c0,10.6-5.8,12.5-18.7,12.5c-5.7,0-11.5-0.4-17.1-1.2l0.6-6.4c4,0.3,9.2,0.4,14.8,0.4
	c9.4,0,12.2-0.9,12.2-5.3c0-4-2.5-4.4-6.5-5.5l-12-3c-7.2-1.9-9.8-5.2-9.8-12.3c0-9.8,5-12.1,17.1-12
	C631.8,18.6,638,19.1,644.1,20.1z"/>
<polygon class="st1" points="0,103.2 0,62.8 44.9,62.8 44.9,17.9 85.3,17.9 85.3,59.3 72.1,59.3 72.1,90.1 41.3,90.1 41.3,103.2 "/>
<polygon class="st2" points="0,103.2 0,143.6 44.9,143.6 44.9,188.5 85.3,188.5 85.3,147.2 72.1,147.2 72.1,116.3 41.3,116.3
	41.3,103.2 "/>
<polygon class="st3" points="85.3,188.4 125.7,188.4 125.7,143.5 170.6,143.5 170.6,103.1 129.3,103.1 129.3,116.3 98.4,116.3
	98.4,147.1 85.3,147.1 "/>
<path class="st0" d="M385.7,134.7c0,6.1-2.8,9.4-8,9.4c-1.9,0-3.9-0.3-5.7-0.8l0.6-4.2h2.9c2.9,0,4.3-1.4,4.3-4.1v-31.8h5.9
	L385.7,134.7z"/>
<path class="st0" d="M422.2,129.4c0,10.9-3.7,15-13.6,15s-13.6-4.1-13.6-15s3.7-15.1,13.6-15.1S422.2,118.4,422.2,129.4z
	 M400.9,129.4c0,7.9,1.8,10.2,7.7,10.2s7.7-2.3,7.7-10.2s-1.8-10.3-7.7-10.3S400.9,121.3,400.9,129.4z"/>
<path class="st0" d="M457.2,129.2c0,9.6-2.8,15.1-12.9,15.1c-4.5,0-9-0.7-13.4-2.1v-39.6h5.7v10.2c0.1,2.2-0.1,4.4-0.6,6.5
	c3.2-3.4,7-5.1,10.8-5.1C453.9,114.3,457.2,118.4,457.2,129.2z M451.4,129.2c-0.1-7.4-1.2-10-6.5-10c-2.9,0-5.1,1.6-8.2,4l0.1,15.5
	c2.5,0.6,5,0.9,7.5,0.9C449.4,139.4,451.3,136.9,451.4,129.2z"/>
<path class="st0" d="M465.7,130.9v-4.3h17.8v4.3H465.7z"/>
<path class="st0" d="M516.6,143.6l-3.4-12.6c-0.9-2.9-2.5-4-5.1-4l-8.3-0.1v16.7H494v-40.4c4.7-0.5,9.4-0.6,14.1-0.5
	c9.5,0,13.3,2.6,13.3,11.7c0,6.4-2,9.6-7.4,10.3v0.3c2.6,0.9,4.6,3.1,5.1,5.9l3.8,12.8H516.6z M508,121.9c5.7-0.1,7.6-1.6,7.6-7.2
	s-1.9-7-7.6-7c-3.2,0-6,0-8.2,0.1v14.2L508,121.9z"/>
<path class="st0" d="M557.1,129.4c0,10.9-3.7,15-13.6,15c-10,0-13.6-4.1-13.6-15s3.7-15.1,13.6-15.1
	C553.4,114.3,557.1,118.4,557.1,129.4z M535.7,129.4c0,7.9,1.8,10.2,7.7,10.2c5.9,0,7.7-2.3,7.7-10.2s-1.8-10.3-7.7-10.3
	C537.5,119.1,535.7,121.3,535.7,129.4L535.7,129.4z"/>
<path class="st0" d="M591.9,129.4c0,10.9-3.7,15-13.6,15c-9.9,0-13.6-4.1-13.6-15s3.7-15.1,13.6-15.1
	C588.2,114.3,591.9,118.4,591.9,129.4z M570.5,129.4c0,7.9,1.8,10.2,7.7,10.2c5.9,0,7.7-2.3,7.7-10.2s-1.8-10.3-7.7-10.3
	C572.3,119.1,570.5,121.3,570.5,129.4L570.5,129.4z"/>
<path class="st0" d="M643.3,122.2v21.4h-5.6v-19.8c-0.1-3.3-1.1-4.7-4.2-4.7c-2.8,0-4.6,1.2-8.8,4.2v20.3h-5.4v-19.8
	c0-3.5-1.3-4.7-4.2-4.7c-2.6,0-4.6,1.1-8.8,4.2v20.4h-5.6V115h4.7l0.3,4.3c3.8-3.3,7.5-5.1,11.5-5.1s6.3,1.7,7.2,5
	c3.8-3.3,7.4-5,11.2-5C640.7,114.3,643.3,117,643.3,122.2z"/>
</svg>
