<?xml version="1.0" encoding="utf-8"?>
<!-- Generator: Adobe Illustrator 21.1.0, SVG Export Plug-In . SVG Version: 6.00 Build 0)  -->
<svg version="1.1" id="Ebene_1" xmlns="http://www.w3.org/2000/svg" xmlns:xlink="http://www.w3.org/1999/xlink" x="0px" y="0px"
	 viewBox="0 0 708.7 283.5" style="enable-background:new 0 0 708.7 283.5;" xml:space="preserve">
<style type="text/css">
	.st0{fill:#555866;}
	.st1{fill:#CC7029;}
	.st2{fill:#C31622;}
	.st3{fill:#8A1642;}
</style>
<title>1047_0118901_eps_rand</title>
<path class="st0" d="M171.9,95.7c0,3,1.6,4.4,4.7,4.4h3.3l1.4,9.1c-2.1,1.2-7.2,1.8-9.8,1.8c-7.3,0-11.8-4.3-11.8-12V48h12.2
	L171.9,95.7z"/>
<path class="st0" d="M226.4,81.1V110h-9.8l-1.3-6.6c-3.7,4.8-9.3,7.6-15.2,7.7c-7.7,0-13.4-4.4-13.4-12.6V94c0-7,4.7-11.1,12.6-11.1
	h14.7V81c-0.1-4.4-1.5-5.7-6.8-5.7c-3.9,0-10.7,0.3-17.3,0.7l-1.2-8.8c7.1-1.3,14.2-2,21.4-2.1C220.8,65.1,226.4,68.8,226.4,81.1z
	 M199,96.7c0,3.1,1.5,4.5,4.8,4.5c2.8,0,6.7-1.4,10.3-4.2v-6.1H203c-3,0.1-4,1.7-4,4.2V96.7z"/>
<path class="st0" d="M265.9,106.9c-0.5,1.9-2.2,3.1-4,3.1h-10.7c-1.8,0-3.5-1.2-4-3.1l-13.5-40.5h13.1l7.4,27.3
	c0.7,2.6,1.3,5.2,1.8,7.8h1.1c0.7-2.6,1.3-5.2,1.9-7.8l7.5-27.3h13L265.9,106.9z"/>
<path class="st0" d="M327.7,88.2c0,16.7-5.7,22.9-21.1,22.9s-21.2-6.2-21.2-22.9s5.8-23.1,21.2-23.1S327.7,71.4,327.7,88.2z
	 M298.4,88.2c0,10.4,1.8,13.1,8.3,13.1c6.3,0,8.2-2.7,8.2-13.1c0-10.6-1.9-13.3-8.2-13.3C300.1,74.9,298.4,77.6,298.4,88.2
	L298.4,88.2z"/>
<path class="st0" d="M366.5,77.2h-3.3c-3.6,0-7,1-12.6,3V110h-12.3V66.4h9.6l1.1,6.5c5.5-4.9,11.3-7.7,16.7-7.7h2.2L366.5,77.2z"/>
<path class="st0" d="M416.2,88.2c0,16.7-5.7,22.9-21.1,22.9S374,104.9,374,88.2s5.8-23.1,21.2-23.1
	C410.6,65.1,416.2,71.4,416.2,88.2z M386.9,88.2c0,10.4,1.7,13.1,8.2,13.1c6.3,0,8.2-2.7,8.2-13.1c0-10.6-1.9-13.3-8.2-13.3
	C388.6,74.9,386.9,77.6,386.9,88.2z"/>
<path class="st0" d="M433.6,96.6c3.3,0,4.3,1.1,4.3,4.5v4.2c0,3.4-1.1,4.6-4.3,4.6h-3.3c-3.3,0-4.3-1.2-4.3-4.6v-4.2
	c0-3.4,1.1-4.5,4.3-4.5H433.6z"/>
<path class="st0" d="M481.7,67.2l-0.7,6.2c-5.1-0.2-10.4-0.4-15.4-0.4c-7.3,0-9.5,0.1-9.5,4.8c0,4.2,1.9,4.5,5.8,5.7l11.5,3
	c6.6,1.9,9.5,4.6,9.5,12.1c0,10.6-5.5,12.5-17.7,12.5c-5.4,0-10.8-0.4-16.2-1.2l0.6-6.4c3.8,0.3,8.7,0.4,13.9,0.4
	c8.9,0,11.5-0.9,11.5-5.3c0-4-2.3-4.4-6.2-5.5l-11.3-3c-6.8-1.9-9.3-5.2-9.3-12.3c0-9.8,4.7-12.1,16.1-12
	C470.1,65.8,475.9,66.3,481.7,67.2z"/>
<path class="st0" d="M544.2,107.6c-0.3,1.5-1.6,2.5-3.1,2.4h-7.3c-1.5,0-2.8-1.2-3.1-2.7l-5.9-28.4c-0.4-2.3-0.8-4.6-1.3-6.9h-1
	c-0.4,2.3-0.9,4.6-1.3,6.9l-5.8,28.4c-0.3,1.6-1.6,2.8-3.2,2.7h-7.2c-1.4,0.1-2.7-0.9-3-2.4l-11.5-40.8h8.3l7.8,31.1
	c0.5,2.2,1,4.4,1.3,6.6h1.1c0.5-2.2,1-4.4,1.4-6.6l6-28.5c0.2-1.6,1.5-2.7,3-2.7h7.2c1.5,0,2.8,1.2,3,2.8l5.9,28.4
	c0.4,2.2,0.9,4.3,1.4,6.6h1.1c0.3-2.2,0.7-4.4,1.3-6.6l7.8-31.1h8.3L544.2,107.6z"/>
<path class="st0" d="M572.2,48.4c1.2-0.2,2.2,0.7,2.4,1.9c0,0.2,0,0.3,0,0.5v5c0,1.7-0.8,2.6-2.3,2.6h-3.8c-1.6,0-2.3-0.9-2.3-2.6
	v-5c-0.1-1.2,0.7-2.3,1.8-2.5c0.2,0,0.3,0,0.5,0H572.2z M566.2,110V66.8h8V110H566.2z"/>
<path class="st0" d="M620.3,67.2l-0.7,6.2c-5.1-0.2-10.4-0.4-15.4-0.4c-7.3,0-9.5,0.1-9.5,4.8c0,4.2,1.9,4.5,5.7,5.7l11.5,3
	c6.6,1.9,9.5,4.6,9.5,12.1c0,10.6-5.5,12.5-17.7,12.5c-5.4,0-10.8-0.4-16.1-1.2l0.6-6.4c3.8,0.3,8.7,0.4,13.9,0.4
	c8.9,0,11.5-0.9,11.5-5.3c0-4-2.3-4.4-6.2-5.5l-11.3-3c-6.8-1.9-9.3-5.2-9.3-12.3c0-9.8,4.7-12.1,16.1-12
	C608.8,65.8,614.6,66.3,620.3,67.2z"/>
<path class="st0" d="M664.8,67.2l-0.7,6.2c-5.1-0.2-10.4-0.4-15.4-0.4c-7.3,0-9.5,0.1-9.5,4.8c0,4.2,1.9,4.5,5.7,5.7l11.5,3
	c6.6,1.9,9.5,4.6,9.5,12.1c0,10.6-5.5,12.5-17.7,12.5c-5.4,0-10.8-0.4-16.2-1.2l0.6-6.4c3.8,0.3,8.7,0.4,13.9,0.4
	c8.9,0,11.5-0.9,11.5-5.3c0-4-2.3-4.4-6.2-5.5l-11.3-3c-6.8-1.9-9.3-5.2-9.3-12.3c0-9.8,4.7-12.1,16.1-12
	C653.3,65.8,659.1,66.3,664.8,67.2z"/>
<polygon class="st1" points="33,150.8 33,110.3 77.9,110.3 77.9,65.4 118.3,65.4 118.3,106.8 105.1,106.8 105.1,137.6 74.3,137.6 
	74.3,150.8 "/>
<polygon class="st2" points="33,150.8 33,191.2 77.9,191.2 77.9,236.1 118.3,236.1 118.3,194.7 105.1,194.7 105.1,163.9 74.3,163.9 
	74.3,150.8 "/>
<polygon class="st3" points="118.3,236 158.8,236 158.8,191.1 203.7,191.1 203.7,150.7 162.3,150.7 162.3,163.9 131.5,163.9 
	131.5,194.7 118.3,194.7 "/>
<path class="st0" d="M421.4,182.3c0,6.1-2.6,9.4-7.5,9.4c-1.8,0-3.6-0.3-5.4-0.8l0.6-4.2h2.7c2.8,0,4.1-1.4,4.1-4.1v-31.8h5.5
	L421.4,182.3z"/>
<path class="st0" d="M455.8,176.9c0,10.9-3.5,15-12.8,15c-9.4,0-12.8-4.1-12.8-15s3.5-15.1,12.8-15.1
	C452.3,161.8,455.8,166,455.8,176.9z M435.7,176.9c0,7.9,1.7,10.2,7.3,10.2c5.6,0,7.3-2.3,7.3-10.2s-1.7-10.3-7.3-10.3
	C437.4,166.6,435.7,168.9,435.7,176.9L435.7,176.9z"/>
<path class="st0" d="M488.8,176.7c0,9.6-2.6,15.1-12.1,15.1c-4.3,0-8.5-0.7-12.6-2.1v-39.6h5.3v10.2c0.1,2.2-0.1,4.4-0.5,6.5
	c3-3.4,6.6-5.1,10.1-5.1C485.7,161.8,488.8,166,488.8,176.7z M483.3,176.7c-0.1-7.4-1.1-10-6.1-10c-2.7,0-4.9,1.6-7.8,4l0.1,15.5
	c2.3,0.6,4.7,0.9,7.1,0.9C481.4,187,483.2,184.5,483.3,176.7L483.3,176.7z"/>
<path class="st0" d="M496.8,178.5v-4.3h16.8v4.3H496.8z"/>
<path class="st0" d="M544.7,191.1l-3.3-12.6c-0.9-2.9-2.4-4-4.8-4l-7.8-0.1v16.7h-5.5v-40.4c4.4-0.5,8.8-0.6,13.3-0.5
	c8.9,0,12.6,2.6,12.6,11.7c0,6.4-1.9,9.6-7,10.3v0.3c2.5,0.9,4.3,3.1,4.8,5.9l3.6,12.8H544.7z M536.6,169.5c5.4-0.1,7.1-1.6,7.1-7.2
	s-1.8-7-7.1-7c-3,0-5.7,0-7.7,0.1v14.2L536.6,169.5z"/>
<path class="st0" d="M582.9,176.9c0,10.9-3.5,15-12.8,15s-12.8-4.1-12.8-15s3.5-15.1,12.8-15.1C579.4,161.8,582.9,166,582.9,176.9z
	 M562.8,176.9c0,7.9,1.7,10.2,7.3,10.2c5.6,0,7.3-2.3,7.3-10.2s-1.7-10.3-7.3-10.3C564.5,166.6,562.8,168.9,562.8,176.9z"/>
<path class="st0" d="M615.7,176.9c0,10.9-3.5,15-12.8,15c-9.4,0-12.8-4.1-12.8-15s3.5-15.1,12.8-15.1S615.7,166,615.7,176.9z
	 M595.5,176.9c0,7.9,1.7,10.2,7.3,10.2s7.3-2.3,7.3-10.2s-1.7-10.3-7.3-10.3S595.5,168.9,595.5,176.9z"/>
<path class="st0" d="M664.2,169.7v21.4h-5.2v-19.8c0-3.3-1-4.7-3.9-4.7c-2.6,0-4.4,1.2-8.3,4.2v20.3h-5.1v-19.8
	c0-3.5-1.3-4.7-3.9-4.7c-2.5,0-4.3,1.1-8.3,4.2v20.4H624v-28.5h4.4l0.3,4.3c3.6-3.3,7.1-5.1,10.8-5.1c3.7,0,6,1.7,6.8,5
	c3.6-3.3,7-5,10.6-5C661.6,161.8,664.2,164.6,664.2,169.7z"/>
</svg>
