<?xml version="1.0" encoding="utf-8"?>
<svg version="1.1" id="Ebene_1" xmlns="http://www.w3.org/2000/svg" xmlns:xlink="http://www.w3.org/1999/xlink" x="0px" y="0px"
	 viewBox="0 0 667.4 187.8" style="enable-background:new 0 0 667.4 187.8;" xml:space="preserve">
<style type="text/css">
	.st0{fill:#555866;}
	.st1{fill:#CC7029;}
	.st2{fill:#C31622;}
	.st3{fill:#8A1642;}
</style>
<title>1Logo of the arbeit.swiss in French</title>
<path class="st0" d="M145.7,47.9c0,3.2,1.2,4.4,4.7,4.4h5.5l1.4,9c-3.9,1.1-8,1.7-12.1,1.7c-7.8,0-12.3-4.5-12.3-12.4v-23h-7.6v-8.2
	l7.6-0.4V7h12.8v12h11.9v8.6h-11.9V47.9z"/>
<path class="st0" d="M196.5,29.7H193c-3.7,0-7.3,1-13.1,3V62H167V19h10l1.1,6.4c5.8-4.9,11.8-7.6,17.4-7.6h2.3L196.5,29.7z"/>
<path class="st0" d="M245.3,33.6V62h-10.2l-1.3-6.5c-3.9,4.8-9.7,7.5-15.9,7.6c-8,0-14-4.4-14-12.4v-4.3c0-6.9,5-10.9,13.1-10.9
	h15.3v-1.9c-0.1-4.3-1.6-5.6-7.1-5.6c-4.1,0-11.2,0.3-18.1,0.7l-1.2-8.7c7.4-1.2,14.9-1.9,22.4-2.1
	C239.5,17.8,245.3,21.5,245.3,33.6z M216.7,48.9c0,3,1.6,4.4,5,4.4c3,0,7.1-1.4,10.7-4.2v-6h-11.5c-3.1,0.1-4.2,1.7-4.2,4.1V48.9z"
	/>
<path class="st0" d="M286.6,58.9c-0.6,1.8-2.3,3-4.2,3h-11.1c-1.9,0-3.6-1.2-4.2-3L253,19h13.7l7.8,26.9c0.7,2.5,1.3,5.1,1.8,7.7
	h1.1c0.7-2.5,1.3-5.1,2-7.7l7.8-26.9h13.6L286.6,58.9z"/>
<path class="st0" d="M348.1,33.6V62H338l-1.3-6.5c-3.9,4.8-9.7,7.5-15.9,7.6c-8,0-14-4.4-14-12.4v-4.3c0-6.9,5-10.9,13.2-10.9h15.3
	v-1.9c-0.1-4.3-1.6-5.6-7-5.6c-4.1,0-11.2,0.3-18.1,0.7l-1.2-8.7c7.4-1.2,14.9-1.9,22.4-2.1C342.3,17.8,348.1,21.5,348.1,33.6z
	 M319.5,48.9c0,3,1.6,4.4,5,4.4c3,0,7.1-1.4,10.7-4.2v-6h-11.6c-3.1,0.1-4.2,1.7-4.2,4.1L319.5,48.9z"/>
<path class="st0" d="M370.1,0c2.5,0,3.7,1.3,3.7,3.7v4.7c0,2.5-1.2,3.7-3.7,3.7h-5.8c-2.5,0-3.8-1.2-3.8-3.7V3.7
	c0-2.4,1.2-3.7,3.8-3.7L370.1,0z M360.8,62V19h12.8v42.9L360.8,62z"/>
<path class="st0" d="M399.6,47.9c0,3,1.7,4.4,4.9,4.4h3.5l1.5,9c-2.2,1.1-7.5,1.7-10.3,1.7c-7.6,0-12.4-4.3-12.4-11.8V1h12.8
	L399.6,47.9z"/>
<path class="st0" d="M424.5,48.8c3.4,0,4.5,1,4.5,4.4v4.2c0,3.4-1.1,4.5-4.5,4.5H421c-3.4,0-4.5-1.1-4.5-4.5v-4.2
	c0-3.4,1.1-4.4,4.5-4.4H424.5z"/>
<path class="st0" d="M474.8,19.8l-0.7,6.1c-5.3-0.2-10.8-0.4-16.1-0.4c-7.6,0-9.9,0.1-9.9,4.7c0,4.1,2,4.4,6,5.6l12,3
	c7,1.8,10,4.5,10,11.9c0,10.4-5.8,12.3-18.5,12.3c-5.6,0-11.3-0.4-16.9-1.2l0.6-6.3c3.9,0.3,9.1,0.4,14.5,0.4c9.3,0,12-0.9,12-5.2
	c0-3.9-2.4-4.3-6.5-5.4l-11.8-3c-7.1-1.8-9.7-5.1-9.7-12.1c0-9.7,5-11.9,16.8-11.8C462.7,18.4,468.8,18.9,474.8,19.8z"/>
<path class="st0" d="M540.2,59.6c-0.4,1.5-1.7,2.4-3.2,2.3h-7.6c-1.6,0-3-1.1-3.2-2.7l-6.2-28c-0.4-2.3-0.8-4.5-1.3-6.8h-1
	c-0.4,2.3-1,4.5-1.4,6.8l-6.1,28c-0.3,1.6-1.7,2.7-3.3,2.7h-7.5c-1.5,0.1-2.8-0.9-3.1-2.3l-12-40.2h8.7l8.2,30.7
	c0.6,2.1,1,4.3,1.3,6.5h1.1c0.5-2.2,1-4.3,1.5-6.5l6.3-28.1c0.2-1.5,1.6-2.6,3.1-2.6h7.5c1.6,0,2.9,1.1,3.1,2.7l6.2,28
	c0.4,2.2,1,4.3,1.5,6.5h1.1c0.3-2.2,0.7-4.4,1.3-6.5l8.2-30.7h8.7L540.2,59.6z"/>
<path class="st0" d="M569.3,1.3c1.2-0.1,2.3,0.7,2.4,2c0,0.2,0,0.3,0,0.5v4.9c0.2,1.2-0.6,2.3-1.8,2.5c-0.2,0-0.4,0-0.6,0h-4
	c-1.2,0.1-2.3-0.7-2.5-1.9c0-0.2,0-0.4,0-0.6V3.7c-0.1-1.2,0.7-2.3,2-2.4c0.2,0,0.3,0,0.5,0L569.3,1.3z M563.2,62V19.5h8.4V62H563.2
	z"/>
<path class="st0" d="M619.7,19.8l-0.7,6.1c-5.3-0.2-10.8-0.4-16.1-0.4c-7.6,0-9.9,0.1-9.9,4.7c0,4.1,2,4.4,6,5.6l12,3
	c6.9,1.8,9.9,4.5,9.9,11.9c0,10.4-5.8,12.3-18.5,12.3c-5.7,0-11.3-0.4-16.9-1.2l0.6-6.3c3.9,0.3,9.1,0.4,14.5,0.4
	c9.3,0,12-0.9,12-5.2c0-3.9-2.4-4.3-6.4-5.4l-11.8-3c-7-1.8-9.7-5.1-9.7-12.1c0-9.7,5-11.9,16.8-11.8
	C607.6,18.4,613.7,18.9,619.7,19.8z"/>
<path class="st0" d="M666.2,19.8l-0.7,6.1c-5.3-0.2-10.8-0.4-16.1-0.4c-7.6,0-9.9,0.1-9.9,4.7c0,4.1,2,4.4,6,5.6l12,3
	c6.9,1.8,9.9,4.5,9.9,11.9c0,10.4-5.8,12.3-18.5,12.3c-5.7,0-11.3-0.4-16.9-1.2l0.6-6.3c3.9,0.3,9.1,0.4,14.5,0.4
	c9.3,0,12-0.9,12-5.2c0-3.9-2.4-4.3-6.5-5.4l-11.8-3c-7.1-1.8-9.7-5.1-9.7-12.1c0-9.7,5-11.9,16.8-11.8
	C654.1,18.4,660.2,18.9,666.2,19.8z"/>
<polygon class="st1" points="0,102.5 0,62.1 44.9,62.1 44.9,17.2 85.3,17.2 85.3,58.5 72.1,58.5 72.1,89.4 41.3,89.4 41.3,102.5 "/>
<polygon class="st2" points="0,102.5 0,142.9 44.9,142.9 44.9,187.8 85.3,187.8 85.3,146.5 72.1,146.5 72.1,115.6 41.3,115.6
	41.3,102.5 "/>
<polygon class="st3" points="85.3,187.7 125.7,187.7 125.7,142.8 170.6,142.8 170.6,102.4 129.3,102.4 129.3,115.6 98.4,115.6
	98.4,146.4 85.3,146.4 "/>
<path class="st0" d="M407.8,134c0,6.1-2.8,9.4-8,9.4c-1.9,0-3.9-0.3-5.7-0.8l0.6-4.2h2.9c2.9,0,4.3-1.4,4.3-4.1v-31.8h5.9L407.8,134
	z"/>
<path class="st0" d="M444.3,128.7c0,10.9-3.7,15-13.6,15s-13.6-4.1-13.6-15s3.7-15.1,13.6-15.1S444.3,117.7,444.3,128.7z M423,128.7
	c0,7.9,1.8,10.2,7.7,10.2s7.7-2.3,7.7-10.2s-1.8-10.3-7.7-10.3S423,120.6,423,128.7z"/>
<path class="st0" d="M479.3,128.5c0,9.6-2.8,15.1-12.9,15.1c-4.5,0-9-0.7-13.3-2.1v-39.6h5.7v10.2c0.1,2.2-0.1,4.4-0.6,6.5
	c3.2-3.4,7-5.1,10.8-5.1C476,113.6,479.3,117.7,479.3,128.5z M473.5,128.5c-0.1-7.4-1.2-10-6.5-10c-2.9,0-5.1,1.6-8.2,4l0.1,15.5
	c2.5,0.6,5,0.9,7.5,0.9C471.5,138.7,473.4,136.2,473.5,128.5z"/>
<path class="st0" d="M487.9,130.2v-4.3h17.8v4.3H487.9z"/>
<path class="st0" d="M538.7,142.9l-3.5-12.6c-0.9-2.9-2.5-4-5.1-4l-8.3-0.1v16.7H516v-40.4c4.7-0.5,9.4-0.6,14.1-0.5
	c9.5,0,13.3,2.6,13.3,11.7c0,6.4-2,9.6-7.4,10.3v0.3c2.6,0.9,4.6,3.1,5.1,5.9l3.8,12.8H538.7z M530,121.2c5.7-0.1,7.5-1.6,7.5-7.2
	s-1.9-7-7.5-7c-3.2,0-6,0-8.2,0.1v14.2L530,121.2z"/>
<path class="st0" d="M579.2,128.7c0,10.9-3.7,15-13.6,15s-13.6-4.1-13.6-15s3.7-15.1,13.6-15.1S579.2,117.7,579.2,128.7z
	 M557.8,128.7c0,7.9,1.8,10.2,7.7,10.2s7.7-2.3,7.7-10.2s-1.8-10.3-7.7-10.3S557.8,120.6,557.8,128.7z"/>
<path class="st0" d="M614,128.7c0,10.9-3.7,15-13.6,15s-13.6-4.1-13.6-15s3.7-15.1,13.6-15.1S614,117.7,614,128.7z M592.6,128.7
	c0,7.9,1.8,10.2,7.7,10.2s7.7-2.3,7.7-10.2s-1.8-10.3-7.7-10.3S592.6,120.6,592.6,128.7z"/>
<path class="st0" d="M665.4,121.5v21.4h-5.5v-19.8c-0.1-3.3-1.1-4.7-4.2-4.7c-2.8,0-4.6,1.2-8.8,4.2v20.3h-5.4v-19.8
	c0-3.5-1.3-4.7-4.2-4.7c-2.6,0-4.6,1.1-8.8,4.2v20.4h-5.6v-28.5h4.7l0.3,4.3c3.8-3.3,7.5-5.1,11.5-5.1s6.3,1.7,7.3,5
	c3.8-3.3,7.4-5,11.2-5C662.8,113.6,665.4,116.3,665.4,121.5z"/>
</svg>
