<?xml version="1.0" encoding="utf-8"?>
<svg version="1.1" id="Ebene_1" xmlns="http://www.w3.org/2000/svg" xmlns:xlink="http://www.w3.org/1999/xlink" x="0px" y="0px"
	 viewBox="0 0 664.1 188" style="enable-background:new 0 0 664.1 188;" xml:space="preserve">
<style type="text/css">
	.st0{fill:#555866;}
	.st1{fill:#CC7029;}
	.st2{fill:#C31622;}
	.st3{fill:#8A1642;}
</style>
<title>Logo of the arbeit.swiss in Italian</title>
<path class="st0" d="M139.6,47.7c0,3,1.7,4.4,4.9,4.4h3.5l1.5,9.1c-2.2,1.2-7.6,1.8-10.4,1.8c-7.7,0-12.6-4.3-12.6-12V0h13
	L139.6,47.7z"/>
<path class="st0" d="M197.5,33.1V62h-10.4l-1.3-6.6c-4,4.8-9.9,7.6-16.1,7.7c-8.1,0-14.2-4.4-14.2-12.6V46c0-7,5-11.1,13.4-11.1
	h15.6V33c-0.1-4.4-1.6-5.7-7.2-5.7c-4.1,0-11.4,0.3-18.4,0.7l-1.2-8.8c7.5-1.3,15.1-2,22.7-2.1C191.5,17.1,197.5,20.8,197.5,33.1z
	 M168.4,48.6c0,3.1,1.6,4.5,5.1,4.5c3,0,7.2-1.4,10.9-4.2v-6.1h-11.8c-3.2,0.1-4.2,1.7-4.2,4.2V48.6z"/>
<path class="st0" d="M239.4,58.8c-0.6,1.9-2.3,3.1-4.2,3.1h-11.3c-1.9,0-3.7-1.2-4.2-3.1l-14.3-40.5h13.9l7.8,27.3
	c0.7,2.6,1.3,5.2,1.9,7.8h1.1c0.7-2.6,1.3-5.2,2-7.8l8-27.3h13.8L239.4,58.8z"/>
<path class="st0" d="M305,40.2c0,16.7-6.1,22.9-22.4,22.9s-22.5-6.2-22.5-22.9s6.1-23.1,22.5-23.1S305,23.4,305,40.2z M273.9,40.2
	c0,10.4,1.9,13.1,8.8,13.1c6.7,0,8.7-2.7,8.7-13.1c0-10.6-2-13.3-8.7-13.3C275.8,26.9,273.9,29.5,273.9,40.2L273.9,40.2z"/>
<path class="st0" d="M346.2,29.2h-3.5c-3.8,0-7.4,1-13.4,3V62h-13.1V18.3h10.2l1.1,6.5c5.8-4.9,12-7.7,17.7-7.7h2.3L346.2,29.2z"/>
<path class="st0" d="M399,40.2c0,16.7-6.1,22.9-22.4,22.9s-22.5-6.2-22.5-22.9s6.1-23.1,22.5-23.1S399,23.4,399,40.2z M367.8,40.2
	c0,10.4,1.9,13.1,8.8,13.1c6.7,0,8.7-2.7,8.7-13.1c0-10.6-2-13.3-8.7-13.3C369.7,26.9,367.8,29.5,367.8,40.2z"/>
<path class="st0" d="M417.4,48.6c3.5,0,4.6,1.1,4.6,4.5v4.2c0,3.4-1.1,4.6-4.6,4.6h-3.5c-3.5,0-4.6-1.2-4.6-4.6v-4.2
	c0-3.4,1.1-4.5,4.6-4.5H417.4z"/>
<path class="st0" d="M468.4,19.1l-0.7,6.2c-5.4-0.2-11-0.4-16.4-0.4c-7.7,0-10.1,0.1-10.1,4.8c0,4.2,2,4.5,6.1,5.7l12.2,3
	c7,1.9,10.1,4.6,10.1,12.1c0,10.6-5.8,12.5-18.8,12.5c-5.7,0-11.5-0.4-17.2-1.2l0.6-6.4c4,0.3,9.2,0.4,14.8,0.4
	c9.5,0,12.2-0.9,12.2-5.3c0-4-2.5-4.4-6.5-5.5l-12-3c-7.2-1.9-9.8-5.2-9.8-12.3c0-9.8,5-12.1,17.1-12
	C456.2,17.7,462.3,18.2,468.4,19.1z"/>
<path class="st0" d="M534.8,59.5c-0.4,1.5-1.7,2.5-3.3,2.4h-7.7c-1.6,0-3-1.2-3.3-2.7l-6.3-28.4c-0.4-2.3-0.8-4.6-1.3-6.9h-1
	c-0.4,2.3-1,4.6-1.4,6.9l-6.2,28.4c-0.3,1.6-1.7,2.8-3.4,2.7h-7.6c-1.5,0.1-2.8-0.9-3.2-2.4L478,18.8h8.9l8.3,31.1
	c0.6,2.2,1,4.4,1.3,6.6h1.2c0.5-2.2,1.1-4.4,1.5-6.6l6.4-28.5c0.3-1.6,1.6-2.7,3.2-2.7h7.7c1.6,0,3,1.2,3.2,2.8l6.3,28.4
	c0.4,2.2,1,4.3,1.5,6.6h1.2c0.3-2.2,0.8-4.4,1.3-6.6l8.3-31.1h8.8L534.8,59.5z"/>
<path class="st0" d="M564.5,0.4c1.2-0.2,2.3,0.7,2.5,1.9c0,0.2,0,0.3,0,0.5v5c0,1.7-0.8,2.6-2.5,2.6h-4.1c-1.7,0-2.5-0.9-2.5-2.6v-5
	c-0.1-1.2,0.7-2.3,2-2.5c0.2,0,0.3,0,0.5,0H564.5z M558.2,62V18.8h8.5V62H558.2z"/>
<path class="st0" d="M615.6,19.1l-0.7,6.2c-5.4-0.2-11-0.4-16.4-0.4c-7.7,0-10.1,0.1-10.1,4.8c0,4.2,2,4.5,6.1,5.7l12.2,3
	c7,1.9,10.1,4.6,10.1,12.1c0,10.6-5.8,12.5-18.8,12.5c-5.7,0-11.5-0.4-17.1-1.2l0.6-6.4c4,0.3,9.2,0.4,14.8,0.4
	c9.5,0,12.2-0.9,12.2-5.3c0-4-2.5-4.4-6.5-5.5l-12-3c-7.2-1.9-9.8-5.2-9.8-12.3c0-9.8,5-12.1,17.1-12
	C603.4,17.7,609.5,18.2,615.6,19.1z"/>
<path class="st0" d="M662.8,19.1l-0.7,6.2c-5.4-0.2-11-0.4-16.4-0.4c-7.7,0-10.1,0.1-10.1,4.8c0,4.2,2,4.5,6.1,5.7l12.2,3
	c7,1.9,10.1,4.6,10.1,12.1c0,10.6-5.8,12.5-18.8,12.5c-5.7,0-11.5-0.4-17.2-1.2l0.6-6.4c4,0.3,9.2,0.4,14.8,0.4
	c9.5,0,12.2-0.9,12.2-5.3c0-4-2.5-4.4-6.5-5.5l-12-3c-7.2-1.9-9.8-5.2-9.8-12.3c0-9.8,5-12.1,17.1-12
	C650.6,17.7,656.8,18.2,662.8,19.1z"/>
<polygon class="st1" points="0,102.7 0,62.3 44.9,62.3 44.9,17.4 85.3,17.4 85.3,58.8 72.1,58.8 72.1,89.6 41.3,89.6 41.3,102.7 "/>
<polygon class="st2" points="0,102.7 0,143.1 44.9,143.1 44.9,188 85.3,188 85.3,146.7 72.1,146.7 72.1,115.8 41.3,115.8
	41.3,102.7 "/>
<polygon class="st3" points="85.3,187.9 125.7,187.9 125.7,143 170.6,143 170.6,102.6 129.3,102.6 129.3,115.8 98.4,115.8
	98.4,146.6 85.3,146.6 "/>
<path class="st0" d="M404.5,134.2c0,6.1-2.8,9.4-8,9.4c-1.9,0-3.9-0.3-5.7-0.8l0.6-4.2h2.9c2.9,0,4.3-1.4,4.3-4.1v-31.8h5.9
	L404.5,134.2z"/>
<path class="st0" d="M441,128.9c0,10.9-3.7,15-13.6,15s-13.6-4.1-13.6-15s3.7-15.1,13.6-15.1S441,117.9,441,128.9z M419.6,128.9
	c0,7.9,1.8,10.2,7.7,10.2s7.7-2.3,7.7-10.2s-1.8-10.3-7.7-10.3S419.6,120.8,419.6,128.9L419.6,128.9z"/>
<path class="st0" d="M476,128.7c0,9.6-2.8,15.1-12.9,15.1c-4.5,0-9-0.7-13.3-2.1v-39.6h5.7v10.2c0.1,2.2-0.1,4.4-0.6,6.5
	c3.2-3.4,7-5.1,10.8-5.1C472.6,113.8,476,117.9,476,128.7z M470.1,128.7c-0.1-7.4-1.2-10-6.5-10c-2.9,0-5.1,1.6-8.2,4l0.1,15.5
	c2.5,0.6,5,0.9,7.5,0.9C468.1,138.9,470.1,136.4,470.1,128.7L470.1,128.7z"/>
<path class="st0" d="M484.5,130.4v-4.3h17.8v4.3H484.5z"/>
<path class="st0" d="M535.4,143.1l-3.5-12.6c-0.9-2.9-2.5-4-5.1-4l-8.3-0.1v16.7h-5.8v-40.4c4.7-0.5,9.4-0.6,14.1-0.5
	c9.5,0,13.3,2.6,13.3,11.7c0,6.4-2,9.6-7.4,10.3v0.3c2.6,0.9,4.6,3.1,5.1,5.9l3.8,12.8H535.4z M526.7,121.4c5.7-0.1,7.5-1.6,7.5-7.2
	s-1.9-7-7.5-7c-3.2,0-6,0-8.2,0.1v14.2L526.7,121.4z"/>
<path class="st0" d="M575.8,128.9c0,10.9-3.7,15-13.6,15s-13.6-4.1-13.6-15s3.7-15.1,13.6-15.1S575.8,117.9,575.8,128.9z
	 M554.5,128.9c0,7.9,1.8,10.2,7.7,10.2s7.7-2.3,7.7-10.2s-1.8-10.3-7.7-10.3S554.5,120.8,554.5,128.9z"/>
<path class="st0" d="M610.6,128.9c0,10.9-3.7,15-13.6,15s-13.6-4.1-13.6-15s3.7-15.1,13.6-15.1S610.6,117.9,610.6,128.9z
	 M589.3,128.9c0,7.9,1.8,10.2,7.7,10.2s7.7-2.3,7.7-10.2s-1.8-10.3-7.7-10.3S589.3,120.8,589.3,128.9z"/>
<path class="st0" d="M662.1,121.7v21.4h-5.6v-19.8c0-3.3-1.1-4.7-4.2-4.7c-2.8,0-4.6,1.2-8.8,4.2v20.3h-5.5v-19.8
	c0-3.5-1.3-4.7-4.2-4.7c-2.6,0-4.6,1.1-8.8,4.2v20.4h-5.6v-28.5h4.7l0.3,4.3c3.8-3.3,7.5-5.1,11.5-5.1s6.3,1.7,7.2,5
	c3.8-3.3,7.4-5,11.2-5C659.4,113.8,662.1,116.5,662.1,121.7z"/>
</svg>
