<svg id="Ebene_1" data-name="Ebene 1" xmlns="http://www.w3.org/2000/svg" viewBox="0 0 708.66 283.46"><defs><style>.cls-1{fill:#555866;}.cls-2{fill:#cc7029;}.cls-3{fill:#c31622;}.cls-4{fill:#8a1642;}</style></defs><title>1047_0118901_eps_rand</title><path class="cls-1" d="M162.65,95.73c0,3,1.68,4.42,4.95,4.42h3.54l1.5,9.11c-2.21,1.15-7.6,1.77-10.43,1.77-7.7,0-12.57-4.33-12.57-12V48.05h13Z"/><path class="cls-1" d="M220.5,81.13V110H210.15l-1.33-6.63a21,21,0,0,1-16.1,7.69c-8.13,0-14.24-4.42-14.24-12.56V94.05c0-7,5-11.06,13.36-11.06h15.57V81.05c-.09-4.43-1.6-5.67-7.17-5.67-4.15,0-11.41.27-18.4.71l-1.23-8.84a155.08,155.08,0,0,1,22.73-2.13C214.57,65.12,220.5,68.84,220.5,81.13ZM191.4,96.7c0,3.1,1.59,4.51,5.13,4.51,3,0,7.16-1.41,10.88-4.24V90.86H195.64c-3.18.09-4.24,1.68-4.24,4.16Z"/><path class="cls-1" d="M262.43,106.88a4.38,4.38,0,0,1-4.25,3.09H246.86a4.38,4.38,0,0,1-4.25-3.09L228.28,66.36h13.89L250,93.69c.71,2.57,1.33,5.22,1.86,7.79h1.15c.71-2.57,1.33-5.22,2-7.79L263,66.36h13.8Z"/><path class="cls-1" d="M328.06,88.21c0,16.72-6.1,22.91-22.38,22.91s-22.47-6.19-22.47-22.91,6.11-23.09,22.47-23.09S328.06,71.4,328.06,88.21Zm-31.14,0c0,10.44,1.86,13.09,8.76,13.09,6.72,0,8.67-2.65,8.67-13.09,0-10.61-2-13.27-8.67-13.27C298.78,74.94,296.92,77.6,296.92,88.21Z"/><path class="cls-1" d="M369.19,77.24h-3.54c-3.8,0-7.43,1-13.35,3V110H339.21V66.36h10.17l1.15,6.46c5.84-4.95,12-7.7,17.69-7.7h2.3Z"/><path class="cls-1" d="M422,88.21c0,16.72-6.1,22.91-22.38,22.91s-22.47-6.19-22.47-22.91,6.11-23.09,22.47-23.09S422,71.4,422,88.21Zm-31.13,0c0,10.44,1.85,13.09,8.75,13.09,6.72,0,8.67-2.65,8.67-13.09,0-10.61-2-13.27-8.67-13.27C392.72,74.94,390.87,77.6,390.87,88.21Z"/><path class="cls-1" d="M440.4,96.61c3.45,0,4.6,1.07,4.6,4.51v4.25c0,3.45-1.15,4.6-4.6,4.6h-3.54c-3.45,0-4.6-1.15-4.6-4.6v-4.25c0-3.44,1.15-4.51,4.6-4.51Z"/><path class="cls-1" d="M491.44,67.16l-.71,6.19c-5.39-.18-11-.44-16.36-.44-7.7,0-10.09.09-10.09,4.77,0,4.16,2,4.52,6.11,5.67l12.2,3c7,1.86,10.09,4.6,10.09,12.12,0,10.62-5.84,12.47-18.76,12.47a115.83,115.83,0,0,1-17.16-1.23l.62-6.37c4,.35,9.2.44,14.78.44,9.46,0,12.2-.89,12.2-5.31,0-4-2.47-4.42-6.54-5.48l-12-3c-7.17-1.86-9.82-5.22-9.82-12.3,0-9.81,5-12.11,17.07-12A137.69,137.69,0,0,1,491.44,67.16Z"/><path class="cls-1" d="M557.87,107.58A3.17,3.17,0,0,1,554.6,110h-7.7a3.3,3.3,0,0,1-3.27-2.74l-6.28-28.4c-.44-2.3-.8-4.6-1.33-6.89H535c-.44,2.29-1,4.59-1.41,6.89l-6.2,28.4A3.33,3.33,0,0,1,524,110h-7.61a3.07,3.07,0,0,1-3.18-2.39L501,66.8h8.85l8.31,31.14a57.62,57.62,0,0,1,1.33,6.63h1.15c.53-2.21,1.06-4.42,1.5-6.63l6.37-28.48a3.17,3.17,0,0,1,3.19-2.66h7.69a3.23,3.23,0,0,1,3.19,2.75l6.28,28.39c.44,2.21,1,4.33,1.5,6.63h1.15a59.84,59.84,0,0,1,1.33-6.63l8.31-31.14H570Z"/><path class="cls-1" d="M587.5,48.41A2.24,2.24,0,0,1,590,50.88v5c0,1.68-.8,2.56-2.48,2.56h-4.07c-1.68,0-2.47-.88-2.47-2.56v-5a2.23,2.23,0,0,1,2.47-2.47ZM581.22,110V66.8h8.5V110Z"/><path class="cls-1" d="M638.63,67.16l-.71,6.19c-5.39-.18-11-.44-16.36-.44-7.7,0-10.08.09-10.08,4.77,0,4.16,2,4.52,6.1,5.67l12.21,3c7,1.86,10.08,4.6,10.08,12.12,0,10.62-5.84,12.47-18.75,12.47A115.75,115.75,0,0,1,604,109.71l.62-6.37c4,.35,9.2.44,14.77.44,9.46,0,12.2-.89,12.2-5.31,0-4-2.47-4.42-6.54-5.48l-12-3c-7.17-1.86-9.82-5.22-9.82-12.3,0-9.81,5-12.11,17.07-12A137.69,137.69,0,0,1,638.63,67.16Z"/><path class="cls-1" d="M685.87,67.16l-.71,6.19c-5.4-.18-11-.44-16.36-.44-7.7,0-10.09.09-10.09,4.77,0,4.16,2,4.52,6.1,5.67l12.21,3c7,1.86,10.09,4.6,10.09,12.12,0,10.62-5.84,12.47-18.76,12.47a115.75,115.75,0,0,1-17.16-1.23l.62-6.37c4,.35,9.2.44,14.77.44,9.47,0,12.21-.89,12.21-5.31,0-4-2.48-4.42-6.54-5.48l-12-3c-7.17-1.86-9.82-5.22-9.82-12.3,0-9.81,5-12.11,17.07-12A137.69,137.69,0,0,1,685.87,67.16Z"/><polygon class="cls-2" points="23.03 150.76 23.03 110.35 67.94 110.35 67.94 65.44 108.35 65.44 108.35 106.81 95.14 106.81 95.14 137.64 64.33 137.64 64.33 150.76 23.03 150.76"/><polygon class="cls-3" points="23.03 150.76 23.03 191.17 67.94 191.17 67.94 236.08 108.35 236.08 108.35 194.71 95.14 194.71 95.14 163.88 64.33 163.88 64.33 150.76 23.03 150.76"/><polygon class="cls-4" points="108.35 236 148.76 236 148.76 191.09 193.67 191.09 193.67 150.68 152.29 150.68 152.29 163.88 121.47 163.88 121.47 194.7 108.35 194.7 108.35 236"/><path class="cls-1" d="M427.53,182.29c0,6.14-2.81,9.42-8,9.36a22.83,22.83,0,0,1-5.73-.76l.64-4.21h2.87c2.92,0,4.33-1.41,4.33-4.1V150.76h5.85Z"/><path class="cls-1" d="M464,176.91c0,10.88-3.68,15-13.63,15s-13.63-4.09-13.63-15,3.69-15.1,13.63-15.1S464,166,464,176.91Zm-21.35,0c0,7.9,1.81,10.24,7.72,10.24s7.72-2.34,7.72-10.24-1.81-10.3-7.72-10.3S442.68,168.89,442.68,176.91Z"/><path class="cls-1" d="M499,176.73c0,9.6-2.8,15.1-12.87,15.1a44.86,44.86,0,0,1-13.33-2.05V150.17h5.67v10.24a28.6,28.6,0,0,1-.58,6.49c3.21-3.39,7-5.09,10.76-5.09C495.68,161.81,499,166,499,176.73Zm-5.84,0c-.06-7.43-1.18-10-6.5-10-2.87,0-5.15,1.58-8.25,4l.06,15.5a29.19,29.19,0,0,0,7.55.88C491.18,187,493.11,184.46,493.17,176.73Z"/><path class="cls-1" d="M507.56,178.49v-4.33h17.78v4.33Z"/><path class="cls-1" d="M558.39,191.12l-3.45-12.57c-.94-2.93-2.52-4-5.09-4l-8.31-.06v16.67h-5.79V150.76a119,119,0,0,1,14.1-.53c9.48,0,13.34,2.63,13.34,11.7,0,6.38-2.05,9.6-7.43,10.3v.29a7.67,7.67,0,0,1,5.09,5.85l3.8,12.75Zm-8.66-21.64c5.68-.06,7.55-1.64,7.55-7.2s-1.87-7-7.55-7c-3.16,0-6,0-8.19.06v14.16Z"/><path class="cls-1" d="M598.87,176.91c0,10.88-3.68,15-13.63,15s-13.63-4.09-13.63-15,3.69-15.1,13.63-15.1S598.87,166,598.87,176.91Zm-21.35,0c0,7.9,1.81,10.24,7.72,10.24s7.73-2.34,7.73-10.24-1.82-10.3-7.73-10.3S577.52,168.89,577.52,176.91Z"/><path class="cls-1" d="M633.68,176.91c0,10.88-3.69,15-13.63,15s-13.63-4.09-13.63-15,3.68-15.1,13.63-15.1S633.68,166,633.68,176.91Zm-21.35,0c0,7.9,1.81,10.24,7.72,10.24s7.72-2.34,7.72-10.24-1.81-10.3-7.72-10.3S612.33,168.89,612.33,176.91Z"/><path class="cls-1" d="M685.16,169.71v21.41H679.6V171.35c-.05-3.33-1.11-4.74-4.15-4.74-2.75,0-4.62,1.17-8.83,4.21v20.3h-5.45V171.35c0-3.51-1.34-4.74-4.15-4.74-2.63,0-4.56,1.11-8.83,4.16v20.35h-5.62V162.58h4.68l.29,4.32c3.81-3.27,7.49-5.09,11.47-5.09s6.32,1.7,7.25,5c3.81-3.34,7.43-5,11.24-5C682.47,161.81,685.16,164.56,685.16,169.71Z"/></svg>