<?xml version="1.0" encoding="utf-8"?>
<svg version="1.1" id="Ebene_1" xmlns="http://www.w3.org/2000/svg" xmlns:xlink="http://www.w3.org/1999/xlink" x="0px" y="0px"
	 viewBox="0 0 607.8 187.8" style="enable-background:new 0 0 607.8 187.8;" xml:space="preserve">
<style type="text/css">
	.st0{fill:#555866;}
	.st1{fill:#CC7029;}
	.st2{fill:#C31622;}
	.st3{fill:#8A1642;}
</style>
<title>Logo of the arbeit.swiss in English</title>
<path class="st0" d="M188.7,58.5c-0.5,2.1-2.4,3.5-4.5,3.4H174c-2.4,0.1-4.4-1.7-4.7-4l-4.4-24.7c-0.4-2.5-0.5-4.9-1-7.3h-1.1
	l-1.1,7.3l-4.3,24.7c-0.3,2.4-2.4,4.1-4.8,4h-10.1c-2.1,0.1-4-1.4-4.5-3.4l-10.7-40.2h13.2l5.9,28.3c0.5,2.4,0.8,4.8,1.1,7.2h1.1
	c0.4-2.4,0.8-4.8,1.1-7.2l4.4-24.4c0.2-2.3,2.2-4,4.5-3.9h9.2c2.3-0.1,4.4,1.7,4.6,4l4.3,24.3c0.4,2.4,0.9,4.8,1.2,7.2h1.1
	c0.4-2.4,0.5-4.7,1.1-7.2l6-28.3h13.2L188.7,58.5z"/>
<path class="st0" d="M251.4,40.2c0,16.7-6.1,22.9-22.4,22.9s-22.5-6.2-22.5-22.9s6.1-23.1,22.5-23.1S251.4,23.3,251.4,40.2z
	 M220.3,40.2c0,10.4,1.9,13.1,8.8,13.1c6.7,0,8.7-2.7,8.7-13.1c0-10.6-2-13.3-8.7-13.3C222.1,26.9,220.3,29.5,220.3,40.2z"/>
<path class="st0" d="M292.6,29.2H289c-3.8,0-7.4,1-13.4,3v29.7h-13.1V18.3h10.2l1.1,6.4c5.8-5,12-7.7,17.7-7.7h2.3L292.6,29.2z"/>
<path class="st0" d="M314.9,41.7c0.4,2.2,0.6,4.3,0.6,6.5V62h-13.1V0h13.1v25.6c0,2.7-0.2,5.4-0.6,8h4.1l10.7-15.2h14.7l-11.3,15.1
	c-1.1,1.6-2.5,3-4.1,4.2v0.2c1.6,1.3,3,2.9,4.1,4.7l12.8,19.5h-14.6L319,41.7H314.9z"/>
<path class="st0" d="M361.1,48.6c3.5,0,4.6,1.1,4.6,4.5v4.2c0,3.4-1.1,4.6-4.6,4.6h-3.5c-3.5,0-4.6-1.2-4.6-4.6v-4.2
	c0-3.4,1.1-4.5,4.6-4.5H361.1z"/>
<path class="st0" d="M412.2,19.1l-0.7,6.2c-5.4-0.2-11-0.4-16.4-0.4c-7.7,0-10.1,0.1-10.1,4.8c0,4.2,2,4.5,6.1,5.7l12.2,3
	c7,1.9,10.1,4.6,10.1,12.1c0,10.6-5.8,12.5-18.8,12.5c-5.7,0-11.5-0.4-17.2-1.2l0.6-6.4c4,0.3,9.2,0.4,14.8,0.4
	c9.5,0,12.2-0.9,12.2-5.3c0-4-2.5-4.4-6.5-5.5l-12-3c-7.2-1.8-9.8-5.2-9.8-12.3c0-9.8,5-12.1,17.1-12
	C399.9,17.7,406.1,18.2,412.2,19.1z"/>
<path class="st0" d="M478.6,59.5c-0.4,1.5-1.8,2.5-3.3,2.4h-7.7c-1.6,0-3-1.2-3.3-2.8l-6.3-28.4c-0.4-2.3-0.8-4.6-1.3-6.9h-1.1
	c-0.5,2.3-1,4.6-1.4,6.9l-6.2,28.4c-0.3,1.6-1.7,2.8-3.4,2.8h-7.6c-1.5,0.1-2.8-0.9-3.2-2.4l-12.2-40.8h8.8l8.3,31.1
	c0.6,2.2,1,4.4,1.3,6.6h1.1c0.5-2.2,1.1-4.4,1.5-6.6l6.4-28.5c0.2-1.6,1.6-2.7,3.2-2.7h7.7c1.6,0,2.9,1.2,3.2,2.7l6.3,28.4
	c0.5,2.2,1,4.3,1.5,6.6h1.2c0.3-2.2,0.8-4.4,1.3-6.6l8.3-31.1h8.8L478.6,59.5z"/>
<path class="st0" d="M508.2,0.3c1.2-0.1,2.3,0.7,2.5,2c0,0.2,0,0.3,0,0.5v5c0,1.7-0.8,2.6-2.5,2.6h-4.1c-1.7,0-2.5-0.9-2.5-2.6v-5
	c-0.1-1.2,0.7-2.3,2-2.5c0.2,0,0.3,0,0.5,0H508.2z M502,61.9V18.7h8.5v43.2L502,61.9z"/>
<path class="st0" d="M559.3,19.1l-0.7,6.2c-5.4-0.2-11-0.4-16.4-0.4c-7.7,0-10.1,0.1-10.1,4.8c0,4.2,2,4.5,6.1,5.7l12.2,3
	c7,1.9,10.1,4.6,10.1,12.1c0,10.6-5.8,12.5-18.8,12.5c-5.7,0-11.5-0.4-17.2-1.2l0.6-6.4c4,0.3,9.2,0.4,14.8,0.4
	c9.5,0,12.2-0.9,12.2-5.3c0-4-2.5-4.4-6.5-5.5l-12-3c-7.2-1.8-9.8-5.2-9.8-12.3c0-9.8,5-12.1,17.1-12
	C547.1,17.7,553.3,18.2,559.3,19.1z"/>
<path class="st0" d="M606.6,19.1l-0.7,6.2c-5.4-0.2-11-0.4-16.4-0.4c-7.7,0-10.1,0.1-10.1,4.8c0,4.2,2,4.5,6.1,5.7l12.2,3
	c7,1.9,10.1,4.6,10.1,12.1c0,10.6-5.8,12.5-18.8,12.5c-5.7,0-11.5-0.4-17.2-1.2l0.6-6.4c4,0.3,9.2,0.4,14.8,0.4
	c9.5,0,12.2-0.9,12.2-5.3c0-4-2.5-4.4-6.5-5.5l-12-3c-7.2-1.8-9.8-5.2-9.8-12.3c0-9.8,5-12.1,17.1-12
	C594.4,17.7,600.5,18.2,606.6,19.1z"/>
<polygon class="st1" points="0,102.5 0,62.1 44.9,62.1 44.9,17.2 85.3,17.2 85.3,58.5 72.1,58.5 72.1,89.3 41.3,89.3 41.3,102.5 "/>
<polygon class="st2" points="0,102.5 0,142.9 44.9,142.9 44.9,187.8 85.3,187.8 85.3,146.4 72.1,146.4 72.1,115.6 41.3,115.6
	41.3,102.5 "/>
<polygon class="st3" points="85.3,187.7 125.7,187.7 125.7,142.8 170.6,142.8 170.6,102.4 129.3,102.4 129.3,115.6 98.4,115.6
	98.4,146.4 85.3,146.4 "/>
<path class="st0" d="M348.4,134c0,6.1-2.8,9.4-8,9.4c-1.9,0-3.9-0.3-5.7-0.8l0.6-4.2h2.9c2.9,0,4.3-1.4,4.3-4.1v-31.8h5.9L348.4,134
	z"/>
<path class="st0" d="M384.9,128.6c0,10.9-3.7,15-13.6,15s-13.6-4.1-13.6-15s3.7-15.1,13.6-15.1S384.9,117.7,384.9,128.6z
	 M363.5,128.6c0,7.9,1.8,10.2,7.7,10.2s7.7-2.3,7.7-10.2c0-7.9-1.8-10.3-7.7-10.3S363.5,120.6,363.5,128.6z"/>
<path class="st0" d="M419.9,128.4c0,9.6-2.8,15.1-12.9,15.1c-4.5,0-9-0.7-13.3-2.1v-39.6h5.7v10.2c0.1,2.2-0.1,4.4-0.6,6.5
	c3.2-3.4,7-5.1,10.8-5.1C416.5,113.5,419.9,117.7,419.9,128.4z M414,128.4c-0.1-7.4-1.2-10-6.5-10c-2.9,0-5.1,1.6-8.2,4l0.1,15.5
	c2.5,0.6,5,0.9,7.5,0.9C412,138.7,414,136.2,414,128.4z"/>
<path class="st0" d="M428.4,130.2v-4.3h17.8v4.3H428.4z"/>
<path class="st0" d="M479.3,142.8l-3.5-12.6c-0.9-2.9-2.5-4-5.1-4l-8.3-0.1v16.7h-5.8v-40.4c4.7-0.5,9.4-0.6,14.1-0.5
	c9.5,0,13.3,2.6,13.3,11.7c0,6.4-2,9.6-7.4,10.3v0.3c2.6,0.9,4.6,3.1,5.1,5.8l3.8,12.8H479.3z M470.6,121.2c5.7-0.1,7.5-1.6,7.5-7.2
	s-1.9-7-7.5-7c-3.2,0-6,0-8.2,0.1v14.2L470.6,121.2z"/>
<path class="st0" d="M519.7,128.6c0,10.9-3.7,15-13.6,15c-10,0-13.6-4.1-13.6-15s3.7-15.1,13.6-15.1
	C516,113.5,519.7,117.7,519.7,128.6z M498.4,128.6c0,7.9,1.8,10.2,7.7,10.2s7.7-2.3,7.7-10.2c0-7.9-1.8-10.3-7.7-10.3
	C500.2,118.3,498.4,120.6,498.4,128.6L498.4,128.6z"/>
<path class="st0" d="M554.5,128.6c0,10.9-3.7,15-13.6,15c-10,0-13.6-4.1-13.6-15s3.7-15.1,13.6-15.1
	C550.9,113.5,554.5,117.7,554.5,128.6z M533.2,128.6c0,7.9,1.8,10.2,7.7,10.2c5.9,0,7.7-2.3,7.7-10.2c0-7.9-1.8-10.3-7.7-10.3
	C535,118.3,533.2,120.6,533.2,128.6L533.2,128.6z"/>
<path class="st0" d="M606,121.4v21.4h-5.6v-19.8c0-3.3-1.1-4.7-4.2-4.7c-2.8,0-4.6,1.2-8.8,4.2v20.3H582v-19.8
	c0-3.5-1.3-4.7-4.2-4.7c-2.6,0-4.6,1.1-8.8,4.2v20.4h-5.6v-28.5h4.7l0.3,4.3c3.8-3.3,7.5-5.1,11.5-5.1c4,0,6.3,1.7,7.3,5
	c3.8-3.3,7.4-5,11.2-5C603.3,113.5,606,116.3,606,121.4z"/>
</svg>
