<?xml version="1.0" encoding="utf-8"?>
<!-- Generator: Adobe Illustrator 21.1.0, SVG Export Plug-In . SVG Version: 6.00 Build 0)  -->
<svg version="1.1" id="Ebene_1" xmlns="http://www.w3.org/2000/svg" xmlns:xlink="http://www.w3.org/1999/xlink" x="0px" y="0px"
	 viewBox="0 0 708.7 283.5" style="enable-background:new 0 0 708.7 283.5;" xml:space="preserve">
<style type="text/css">
	.st0{fill:#555866;}
	.st1{fill:#CC7029;}
	.st2{fill:#C31622;}
	.st3{fill:#8A1642;}
</style>
<title>1047_0118901_eps_rand</title>
<path class="st0" d="M221.4,106.3c-0.5,2.1-2.4,3.5-4.5,3.4h-10.2c-2.4,0.1-4.4-1.7-4.7-4l-4.4-24.7c-0.4-2.5-0.5-4.9-1-7.3h-1.1
	l-1.1,7.3l-4.3,24.7c-0.3,2.4-2.4,4.1-4.8,4h-10.1c-2.1,0.1-4-1.4-4.5-3.4L160,66.1h13.2l5.9,28.3c0.5,2.4,0.8,4.8,1.1,7.2h1.1
	c0.4-2.4,0.8-4.8,1.1-7.2l4.4-24.4c0.2-2.3,2.2-4,4.5-3.9h9.2c2.3-0.1,4.4,1.7,4.6,4l4.3,24.3c0.4,2.4,0.9,4.8,1.2,7.2h1.1
	c0.4-2.4,0.5-4.7,1.1-7.2l6-28.3h13.2L221.4,106.3z"/>
<path class="st0" d="M284.1,88c0,16.7-6.1,22.9-22.4,22.9s-22.5-6.2-22.5-22.9s6.1-23.1,22.5-23.1S284.1,71.2,284.1,88z M253,88
	c0,10.4,1.9,13.1,8.8,13.1c6.7,0,8.7-2.7,8.7-13.1c0-10.6-2-13.3-8.7-13.3C254.8,74.7,253,77.4,253,88z"/>
<path class="st0" d="M325.3,77h-3.5c-3.8,0-7.4,1-13.4,3v29.7h-13.1V66.1h10.2l1.1,6.4c5.8-5,12-7.7,17.7-7.7h2.3L325.3,77z"/>
<path class="st0" d="M347.5,89.5c0.4,2.2,0.6,4.3,0.6,6.5v13.7h-13.1v-62h13.1v25.6c0,2.7-0.2,5.4-0.6,8h4.1l10.7-15.2h14.7
	l-11.3,15.1c-1.1,1.6-2.5,3-4.1,4.2v0.2c1.6,1.3,3,2.9,4.1,4.7l12.8,19.5h-14.6l-12.2-20.2H347.5z"/>
<path class="st0" d="M393.8,96.4c3.5,0,4.6,1.1,4.6,4.5v4.2c0,3.4-1.1,4.6-4.6,4.6h-3.5c-3.5,0-4.6-1.2-4.6-4.6v-4.2
	c0-3.4,1.1-4.5,4.6-4.5H393.8z"/>
<path class="st0" d="M444.9,66.9l-0.7,6.2c-5.4-0.2-11-0.4-16.4-0.4c-7.7,0-10.1,0.1-10.1,4.8c0,4.2,2,4.5,6.1,5.7l12.2,3
	c7,1.9,10.1,4.6,10.1,12.1c0,10.6-5.8,12.5-18.8,12.5c-5.7,0-11.5-0.4-17.2-1.2l0.6-6.4c4,0.3,9.2,0.4,14.8,0.4
	c9.5,0,12.2-0.9,12.2-5.3c0-4-2.5-4.4-6.5-5.5l-12-3c-7.2-1.8-9.8-5.2-9.8-12.3c0-9.8,5-12.1,17.1-12
	C432.6,65.5,438.8,66,444.9,66.9z"/>
<path class="st0" d="M511.3,107.4c-0.4,1.5-1.8,2.5-3.3,2.4h-7.7c-1.6,0-3-1.2-3.3-2.8l-6.3-28.4c-0.4-2.3-0.8-4.6-1.3-6.9h-1.1
	c-0.5,2.3-1,4.6-1.4,6.9l-6.2,28.4c-0.3,1.6-1.7,2.8-3.4,2.8h-7.6c-1.5,0.1-2.8-0.9-3.2-2.4l-12.2-40.8h8.8l8.3,31.1
	c0.6,2.2,1,4.4,1.3,6.6h1.1c0.5-2.2,1.1-4.4,1.5-6.6l6.4-28.5c0.2-1.6,1.6-2.7,3.2-2.7h7.7c1.6,0,2.9,1.2,3.2,2.7l6.3,28.4
	c0.5,2.2,1,4.3,1.5,6.6h1.2c0.3-2.2,0.8-4.4,1.3-6.6l8.3-31.1h8.8L511.3,107.4z"/>
<path class="st0" d="M540.9,48.2c1.2-0.1,2.3,0.7,2.5,2c0,0.2,0,0.3,0,0.5v5c0,1.7-0.8,2.6-2.5,2.6h-4.1c-1.7,0-2.5-0.9-2.5-2.6v-5
	c-0.1-1.2,0.7-2.3,2-2.5c0.2,0,0.3,0,0.5,0H540.9z M534.7,109.8V66.5h8.5v43.2L534.7,109.8z"/>
<path class="st0" d="M592,66.9l-0.7,6.2c-5.4-0.2-11-0.4-16.4-0.4c-7.7,0-10.1,0.1-10.1,4.8c0,4.2,2,4.5,6.1,5.7l12.2,3
	c7,1.9,10.1,4.6,10.1,12.1c0,10.6-5.8,12.5-18.8,12.5c-5.7,0-11.5-0.4-17.2-1.2l0.6-6.4c4,0.3,9.2,0.4,14.8,0.4
	c9.5,0,12.2-0.9,12.2-5.3c0-4-2.5-4.4-6.5-5.5l-12-3c-7.2-1.8-9.8-5.2-9.8-12.3c0-9.8,5-12.1,17.1-12C579.8,65.5,586,66,592,66.9z"
	/>
<path class="st0" d="M639.3,66.9l-0.7,6.2c-5.4-0.2-11-0.4-16.4-0.4c-7.7,0-10.1,0.1-10.1,4.8c0,4.2,2,4.5,6.1,5.7l12.2,3
	c7,1.9,10.1,4.6,10.1,12.1c0,10.6-5.8,12.5-18.8,12.5c-5.7,0-11.5-0.4-17.2-1.2l0.6-6.4c4,0.3,9.2,0.4,14.8,0.4
	c9.5,0,12.2-0.9,12.2-5.3c0-4-2.5-4.4-6.5-5.5l-12-3c-7.2-1.8-9.8-5.2-9.8-12.3c0-9.8,5-12.1,17.1-12C627,65.5,633.2,66,639.3,66.9z
	"/>
<polygon class="st1" points="32.7,150.3 32.7,109.9 77.6,109.9 77.6,65 118,65 118,106.4 104.8,106.4 104.8,137.2 74,137.2 
	74,150.3 "/>
<polygon class="st2" points="32.7,150.3 32.7,190.7 77.6,190.7 77.6,235.6 118,235.6 118,194.3 104.8,194.3 104.8,163.4 74,163.4 
	74,150.3 "/>
<polygon class="st3" points="118,235.5 158.4,235.5 158.4,190.6 203.3,190.6 203.3,150.2 162,150.2 162,163.4 131.1,163.4 
	131.1,194.2 118,194.2 "/>
<path class="st0" d="M381.1,181.8c0,6.1-2.8,9.4-8,9.4c-1.9,0-3.9-0.3-5.7-0.8l0.6-4.2h2.9c2.9,0,4.3-1.4,4.3-4.1v-31.8h5.9
	L381.1,181.8z"/>
<path class="st0" d="M417.6,176.5c0,10.9-3.7,15-13.6,15s-13.6-4.1-13.6-15s3.7-15.1,13.6-15.1S417.6,165.5,417.6,176.5z
	 M396.2,176.5c0,7.9,1.8,10.2,7.7,10.2s7.7-2.3,7.7-10.2s-1.8-10.3-7.7-10.3S396.2,168.4,396.2,176.5z"/>
<path class="st0" d="M452.6,176.3c0,9.6-2.8,15.1-12.9,15.1c-4.5,0-9-0.7-13.3-2.1v-39.6h5.7V160c0.1,2.2-0.1,4.4-0.6,6.5
	c3.2-3.4,7-5.1,10.8-5.1C449.2,161.4,452.6,165.5,452.6,176.3z M446.7,176.3c-0.1-7.4-1.2-10-6.5-10c-2.9,0-5.1,1.6-8.2,4l0.1,15.5
	c2.5,0.6,5,0.9,7.5,0.9C444.7,186.5,446.7,184,446.7,176.3z"/>
<path class="st0" d="M461.1,178v-4.3h17.8v4.3H461.1z"/>
<path class="st0" d="M511.9,190.7l-3.5-12.6c-0.9-2.9-2.5-4-5.1-4l-8.3-0.1v16.7h-5.8v-40.4c4.7-0.5,9.4-0.6,14.1-0.5
	c9.5,0,13.3,2.6,13.3,11.7c0,6.4-2,9.6-7.4,10.3v0.3c2.6,0.9,4.6,3.1,5.1,5.9l3.8,12.8H511.9z M503.3,169c5.7-0.1,7.5-1.6,7.5-7.2
	s-1.9-7-7.5-7c-3.2,0-6,0-8.2,0.1V169L503.3,169z"/>
<path class="st0" d="M552.4,176.5c0,10.9-3.7,15-13.6,15s-13.6-4.1-13.6-15s3.7-15.1,13.6-15.1S552.4,165.5,552.4,176.5z
	 M531.1,176.5c0,7.9,1.8,10.2,7.7,10.2s7.7-2.3,7.7-10.2s-1.8-10.3-7.7-10.3S531.1,168.4,531.1,176.5L531.1,176.5z"/>
<path class="st0" d="M587.2,176.5c0,10.9-3.7,15-13.6,15s-13.6-4.1-13.6-15s3.7-15.1,13.6-15.1S587.2,165.5,587.2,176.5z
	 M565.9,176.5c0,7.9,1.8,10.2,7.7,10.2s7.7-2.3,7.7-10.2s-1.8-10.3-7.7-10.3S565.9,168.4,565.9,176.5L565.9,176.5z"/>
<path class="st0" d="M638.7,169.3v21.4h-5.6v-19.8c0-3.3-1.1-4.7-4.2-4.7c-2.8,0-4.6,1.2-8.8,4.2v20.3h-5.4v-19.8
	c0-3.5-1.3-4.7-4.2-4.7c-2.6,0-4.6,1.1-8.8,4.2v20.4h-5.6v-28.5h4.7l0.3,4.3c3.8-3.3,7.5-5.1,11.5-5.1s6.3,1.7,7.3,5
	c3.8-3.3,7.4-5,11.2-5C636,161.4,638.7,164.1,638.7,169.3z"/>
</svg>
